<?xml version="1.0" encoding="UTF-8"?>
<svg width="297px" height="392px" viewBox="0 0 297 392" version="1.1" xmlns="http://www.w3.org/2000/svg" xmlns:xlink="http://www.w3.org/1999/xlink">
    <!-- Generator: sketchtool 50.2 (55047) - http://www.bohemiancoding.com/sketch -->
    <title>0D87F4AD-8EA9-47A0-ABF9-7753CF61BD76</title>
    <desc>Created with sketchtool.</desc>
    <defs>
        <polygon id="path-1" points="0.499265989 0.401934524 73.6707737 0.401934524 73.6707737 248.970238 0.499265989 248.970238"></polygon>
        <polygon id="path-3" points="0.255752691 0.47927121 134.462778 0.47927121 134.462778 23.9823529 0.255752691 23.9823529"></polygon>
        <polygon id="path-5" points="0.513426197 0.251279324 130.698453 0.251279324 130.698453 25.962 0.513426197 25.962"></polygon>
        <polygon id="path-7" points="0.449675416 0.50727813 87.0574995 0.50727813 87.0574995 23.9823529 0.449675416 23.9823529"></polygon>
        <polygon id="path-9" points="0.22367393 0.282405161 89.7704518 0.282405161 89.7704518 25.962 0.22367393 25.962"></polygon>
        <polygon id="path-11" points="0.33305 0.508970588 27.53705 0.508970588 27.53705 23.9823529 0.33305 23.9823529"></polygon>
        <polygon id="path-13" points="0.739642105 0.508970588 27.4663789 0.508970588 27.4663789 23.9823529 0.739642105 23.9823529"></polygon>
        <polygon id="path-15" points="0.735112896 0.328656098 125.566245 0.328656098 125.566245 242.970439 0.735112896 242.970439"></polygon>
        <polygon id="path-17" points="0.09965 0.2868 30.76715 0.2868 30.76715 25.962 0.09965 25.962"></polygon>
        <polygon id="path-19" points="0.512680952 0.2868 30.6933952 0.2868 30.6933952 25.962 0.512680952 25.962"></polygon>
        <polygon id="path-21" points="0.925712565 0.667458824 120.284457 0.667458824 120.284457 74.9687843 0.925712565 74.9687843"></polygon>
        <polygon id="path-23" points="0.1799 0.997067308 31.7114 0.997067308 31.7114 153.968654 0.1799 153.968654"></polygon>
        <polygon id="path-25" points="0.39504386 0.340774545 82.734693 0.340774545 82.734693 243.968291 0.39504386 243.968291"></polygon>
        <polygon id="path-27" points="0.26318 0.78311215 35.65146 0.78311215 35.65146 157.971701 0.26318 157.971701"></polygon>
        <polygon id="path-29" points="0.120177778 0.1691 11.9885484 0.1691 11.9885484 21.962 0.120177778 21.962"></polygon>
        <polygon id="path-31" points="0.37065 0.1697 38.8782609 0.1697 38.8782609 21.962 0.37065 21.962"></polygon>
    </defs>
    <g id="Page-1" stroke="none" stroke-width="1" fill="none" fill-rule="evenodd">
        <g id="frontpage-ui" transform="translate(-195.000000, -1961.000000)">
            <g id="block-3" transform="translate(0.000000, 1900.000000)">
                <g id="illustration" transform="translate(195.000000, 61.000000)">
                    <path d="M105.810123,158 C114.680973,158 122.54517,155.805652 130.149827,153.68337 C136.603809,151.883181 142.699237,150.183002 148.526124,150.183002 C149.892832,150.183002 151,149.097594 151,147.757748 C151,146.419372 149.892832,145.333964 148.526124,145.333964 C142.009132,145.333964 135.591155,147.123858 128.796621,149.019645 C121.516013,151.04927 113.989368,153.150961 105.810123,153.150961 C95.1044942,153.150961 92.2465593,149.799139 90.1627422,147.351823 C88.8215381,145.781069 87.303307,144 84.4738765,144 C83.1071685,144 82,145.085408 82,146.425255 C82,147.763631 83.1101689,148.849039 84.4738765,148.849039 C84.904442,148.849039 85.2224904,149.121126 86.3656643,150.462444 C88.7690301,153.281857 92.7926424,158 105.810123,158" id="Fill-1" fill="#5A3C55"></path>
                    <path d="M150.753572,163.787317 C149.901257,165.216468 149.400857,166.883811 149.374129,168.668761 L148.00508,259.460052 C147.766016,275.179225 155.980311,289.956052 169.440648,298.021824 L247.180964,344.607684 C251.82415,347.390062 257.836384,345.871589 260.611604,341.217916 C263.386824,336.564243 261.870773,330.535011 257.230558,327.754122 L179.488757,281.168261 C172.015411,276.688766 167.455379,268.486034 167.587532,259.75928 L168.956581,168.965012 C169.038249,163.54317 164.721735,159.081539 159.313842,159.001149 C155.686307,158.946068 152.489384,160.875422 150.753572,163.787317" id="Fill-3" fill="#FFA898"></path>
                    <path d="M167.344053,300.877506 L229.128066,337.714716 C230.086328,338.28497 231.325203,337.973787 231.898369,337.017904 L243.713947,317.298733 C244.285621,316.344339 243.973663,315.107052 243.016894,314.53531 L181.23288,277.699588 C174.851931,273.895414 170.962163,266.942188 171.059184,259.506554 L172.454783,168.708138 C172.495084,165.100501 171.150233,161.695356 168.630691,159.107624 C166.111149,156.515425 162.745291,155.054801 159.106284,155.0012 C154.30154,154.937177 149.762483,157.438552 147.28772,161.567309 C146.063771,163.611587 145.412989,165.940248 145.380152,168.29422 L144.005449,259.106036 C143.747225,276.140696 152.683541,292.136094 167.344053,300.877506" id="Fill-5" fill="#E1D9DF"></path>
                    <polygon id="Fill-7" fill="#D6CBD3" points="214 329.261864 223.395066 335 237 311.738136 227.606396 306"></polygon>
                    <path d="M199.58384,358.750943 C198.216126,360.229076 195.914798,360.311278 194.443018,358.93627 L128.21591,296.971242 C126.745617,295.594739 126.663852,293.281139 128.031566,291.803006 L217.41616,195.250552 C218.783874,193.772418 221.085202,193.688722 222.555495,195.06373 L288.782603,257.030253 C290.254383,258.405261 290.336148,260.720355 288.968434,262.196994 L199.58384,358.750943 Z M292.41448,253.715288 L225.583793,191.185311 C222.304252,188.116951 217.170863,188.302278 214.118779,191.599308 L124.173719,288.758559 C121.121635,292.055589 121.305979,297.216352 124.58552,300.284712 L191.416207,362.814689 C194.695748,365.883049 199.829137,365.697722 202.881221,362.400692 L292.826281,265.242935 C295.878365,261.944411 295.694021,256.783648 292.41448,253.715288 Z" id="Fill-9" fill="#B6664C"></path>
                    <path d="M288.839626,256.629855 L222.566004,194.97529 C221.094678,193.605684 218.791734,193.688961 217.421571,195.159688 L127.975686,291.228386 C126.605524,292.699114 126.688834,295.001122 128.16016,296.370728 L194.433782,358.025293 C195.905108,359.393411 198.208052,359.311622 199.578215,357.840894 L289.025588,261.772196 C290.394263,260.301469 290.310952,257.997973 288.839626,256.629855" id="Fill-11" fill="#F0ECEF"></path>
                    <path d="M210.479343,326.196896 L159.748205,279.433713 C159.087694,278.825306 158.052942,278.860747 157.438652,279.516409 C156.822871,280.170594 156.860146,281.193959 157.520657,281.803843 L208.253286,328.565549 C208.913797,329.175433 209.947058,329.138515 210.561348,328.48433 C211.177129,327.828667 211.139854,326.805303 210.479343,326.196896" id="Fill-13" fill="#CABAC4"></path>
                    <path d="M215.479126,319.196896 L164.747689,272.433713 C164.087174,271.825306 163.053908,271.860747 162.438123,272.516409 C161.822338,273.170594 161.861104,274.193959 162.520128,274.803843 L213.253056,321.565549 C213.913571,322.175433 214.946838,322.138515 215.562622,321.48433 C216.176916,320.828667 216.139641,319.805303 215.479126,319.196896" id="Fill-15" fill="#CABAC4"></path>
                    <path d="M221.479126,313.196896 L170.747689,266.433713 C170.087174,265.825306 169.052417,265.860747 168.438123,266.516409 C167.822338,267.170594 167.861104,268.193959 168.520128,268.803843 L219.253056,315.565549 C219.913571,316.175433 220.946838,316.138515 221.562622,315.48433 C222.176916,314.828667 222.139641,313.805303 221.479126,313.196896" id="Fill-17" fill="#CABAC4"></path>
                    <path d="M227.479343,307.196928 L176.748205,260.434286 C176.086203,259.824409 175.052942,259.861327 174.438652,260.516981 C173.822871,261.171159 173.860146,262.194512 174.520657,262.804389 L225.253286,309.565554 C225.913797,310.175431 226.947058,310.138513 227.561348,309.484336 C228.177129,308.828681 228.139854,307.805328 227.479343,307.196928" id="Fill-19" fill="#CABAC4"></path>
                    <path d="M233.479343,301.196928 L182.746714,254.434286 C182.086203,253.824409 181.052942,253.861327 180.438652,254.516981 C179.822871,255.171159 179.860146,256.194512 180.520657,256.802912 L231.251795,303.565554 C231.913797,304.175431 232.947058,304.138513 233.561348,303.484336 C234.177129,302.828681 234.139854,301.805328 233.479343,301.196928" id="Fill-21" fill="#CABAC4"></path>
                    <path d="M239.479126,294.196896 L188.747689,247.433713 C188.087174,246.825306 187.052417,246.860747 186.438123,247.516409 C185.822338,248.170594 185.861104,249.193959 186.520128,249.802366 L237.253056,296.565549 C237.913571,297.175433 238.946838,297.138515 239.562622,296.48433 C240.176916,295.828667 240.139641,294.805303 239.479126,294.196896" id="Fill-23" fill="#CABAC4"></path>
                    <path d="M245.479343,288.197046 L194.748205,241.433714 C194.086203,240.825305 193.052942,240.860746 192.438652,241.516411 C191.822871,242.170598 191.860146,243.193966 192.520657,243.803852 L243.253286,290.565707 C243.913797,291.175593 244.947058,291.138675 245.561348,290.483011 C246.177129,289.828823 246.139854,288.805456 245.479343,288.197046" id="Fill-25" fill="#CABAC4"></path>
                    <path d="M250.479126,282.197046 L199.747689,235.433714 C199.087174,234.825305 198.052417,234.860746 197.438123,235.516411 C196.822338,236.170598 196.861104,237.193966 197.520128,237.802375 L248.253056,284.565707 C248.913571,285.175593 249.946838,285.138675 250.562622,284.483011 C251.176916,283.828823 251.139641,282.805456 250.479126,282.197046" id="Fill-27" fill="#CABAC4"></path>
                    <path d="M256.479126,276.196928 L205.747689,229.434286 C205.087174,228.824409 204.052417,228.861327 203.438123,229.516981 C202.822338,230.171159 202.861104,231.194512 203.520128,231.804389 L254.253056,278.565554 C254.913571,279.175431 255.946838,279.138513 256.562622,278.484336 C257.176916,277.828681 257.139641,276.805328 256.479126,276.196928" id="Fill-29" fill="#CABAC4"></path>
                    <path d="M262.479343,269.197079 L211.746714,222.434288 C211.086203,221.824409 210.052942,221.861326 209.438652,222.516983 C208.822871,223.171163 208.860146,224.194519 209.520657,224.804398 L260.253286,271.565712 C260.913797,272.175591 261.947058,272.138674 262.561348,271.483017 C263.177129,270.828837 263.139854,269.805481 262.479343,269.197079" id="Fill-31" fill="#CABAC4"></path>
                    <path d="M264.644905,216.621373 C262.767533,214.871001 262.661407,211.924742 264.408738,210.042494 C266.156069,208.160245 269.094694,208.053844 270.972066,209.805714 C272.849438,211.557584 272.954069,214.502344 271.208232,216.386092 C269.460901,218.26834 266.522276,218.373243 264.644905,216.621373 M272.915206,258.669251 L273.176782,256.449816 C273.414443,254.440186 272.928658,252.411074 271.807616,250.726641 L266.901936,243.360994 C266.169522,242.259519 266.28611,240.798378 267.185933,239.830279 L273.285897,233.257394 C274.359108,232.103468 274.29334,230.29615 273.142404,229.221649 L269.825614,226.128527 C268.993053,225.350751 268.946717,224.043967 269.720983,223.209243 L273.804566,218.809337 C276.886684,215.488427 276.701339,210.291262 273.389033,207.201137 C270.076727,204.111012 264.894523,204.29684 261.81091,207.61775 L257.728822,212.016157 C256.953061,212.852379 255.648168,212.898836 254.815608,212.122558 L251.500312,209.027938 C250.349376,207.953437 248.54674,208.017877 247.475024,209.173302 L241.373566,215.746187 C240.475237,216.714286 239.02984,216.93608 237.881893,216.281189 L230.202008,211.905261 C228.447203,210.904192 226.393454,210.564009 224.411451,210.944654 L222.221683,211.367261 C221.665646,211.473662 221.215734,211.885779 221.058788,212.431271 C220.901842,212.978262 221.064767,213.565716 221.4803,213.953855 L270.395103,259.595389 C270.810636,259.983528 271.405536,260.103416 271.937657,259.907099 C272.471273,259.71228 272.847943,259.232727 272.915206,258.669251" id="Fill-33" fill="#B8A5B2"></path>
                    <path d="M237,216.239885 L129.820802,320 L117.53691,307.337698 C116.804658,306.583812 116.824085,305.385058 117.578753,304.653565 L222.029194,203.535783 C222.782366,202.805782 223.985351,202.823696 224.716108,203.577583 L237,216.239885 Z" id="Fill-35" fill="#54939B"></path>
                    <path d="M205,372.404872 L195.381812,381.609842 C193.402034,383.505112 190.240032,383.456704 188.321147,381.499823 L179,372 L205,372.404872 Z" id="Fill-37" fill="#54939B"></path>
                    <polygon id="Fill-39" fill="#5FA2A8" points="285.571756 293.866194 205.102131 372 178.980726 371.587369 129 319.912789 236.017782 216 286 267.67458"></polygon>
                    <path d="M295.492429,284.686722 L286,294 L286.420681,268 L295.619953,277.610115 C297.513748,279.590022 297.446322,282.769152 295.492429,284.686722" id="Fill-41" fill="#54939B"></path>
                    <path d="M232.184958,308.65778 C231.723009,309.112045 230.942731,309.125538 230.467457,308.629295 L200.32828,277.139642 C199.881138,276.670386 199.891502,275.85331 200.354931,275.399046 L220.79319,255.343957 C221.28475,254.861207 222.065029,254.901686 222.512171,255.370943 L252.651348,286.860596 C253.126622,287.356838 253.114777,288.118443 252.623216,288.602692 L232.184958,308.65778 Z" id="Fill-43" fill="#F0ECEF"></path>
                    <g id="Group-47" transform="translate(91.000000, 143.000000)">
                        <mask id="mask-2" fill="white">
                            <use xlink:href="#path-1"></use>
                        </mask>
                        <g id="Clip-46"></g>
                        <path d="M0.5883,4.49345238 C0.59126,4.40863095 0.59422,4.32529762 0.59718,4.24642857 L0.59718,4.24494048 C0.61494,3.7985119 0.62826,3.47410714 0.62974,3.44583333 C0.65194,2.96071429 0.77922,2.59166667 0.97014,2.28958333 C0.97754,2.27321429 0.97754,2.25238095 0.98642,2.2375 C0.98938,2.23154762 0.99974,2.22857143 1.00418,2.22261905 C1.16994,1.98154762 1.39342,1.7985119 1.64798,1.6452381 C1.6983,1.61696429 1.74714,1.58720238 1.79894,1.56041667 C2.06238,1.425 2.35542,1.31488095 2.67954,1.23154762 C2.69138,1.22857143 2.70026,1.22261905 2.71062,1.21964286 C2.73282,1.21666667 2.75798,1.21369048 2.78018,1.20922619 C3.39438,1.06041667 4.08554,0.965178571 4.80334,0.846130952 C5.08306,0.80297619 5.37166,0.783630952 5.65582,0.746428571 C5.8645,0.718154762 6.05098,0.675 6.26558,0.648214286 C6.44762,0.627380952 6.63262,0.630357143 6.81614,0.6125 C7.5961,0.532142857 8.37162,0.486011905 9.15454,0.45625 C9.41946,0.447321429 9.68438,0.407142857 9.94634,0.404166667 L9.95078,0.404166667 C10.19646,0.401190476 10.44066,0.401190476 10.68338,0.404166667 C17.3937,0.404166667 34.30418,0.526190476 40.96566,1.60654762 C41.84626,1.75833333 42.65138,1.96815476 43.41506,2.21369048 C43.66666,2.29553571 43.89606,2.40119048 44.13582,2.49196429 C44.62718,2.67946429 45.10966,2.87440476 45.55662,3.10208333 C45.81266,3.23154762 46.05686,3.37738095 46.30106,3.51875 C46.6977,3.75089286 47.08398,3.99642857 47.45102,4.26130952 C47.6819,4.42797619 47.91278,4.60059524 48.1333,4.78065476 C48.26798,4.88928571 48.4145,4.98005952 48.54474,5.09315476 C48.52106,5.08869048 48.49442,5.08422619 48.47074,5.0797619 C51.1895,7.41755952 53.2467,10.7077381 55.7775,14.7330357 C56.4361,15.7627976 57.07102,16.7940476 57.5831,17.7985119 C68.8311,38.9488095 75.61542,60.9800595 73.1749,72.83125 C73.1379,73.0083333 73.10238,73.1854167 73.06538,73.3610119 C71.27162,81.9175595 70.3777,90.6497024 70.3777,99.3952381 L70.3777,383.832738 L64.90318,383.832738 L40.18422,383.832738 L33.97266,383.832738 L33.97266,89.0321429 C33.97266,80.7255952 31.50698,72.5901786 26.87458,65.7122024 C23.80358,61.1511905 20.1317,55.8699405 15.78346,49.4488095 C4.21726,32.4220238 1.26466,19.2717262 0.6549,11.7151786 L0.6549,11.689881 C0.62974,11.3952381 0.60606,11.0767857 0.60606,10.7821429 C0.50838,9.60505952 0.48322,8.57380952 0.50838,7.71517857 C0.4773,7.65416667 0.54242,5.7375 0.5883,4.49345238" id="Fill-45" fill="#C7B8C3" mask="url(#mask-2)"></path>
                    </g>
                    <path d="M140.162033,147.86659 C138.150016,146.188902 135.763914,145.031628 132.501467,144.492525 C125.793256,143.45026 108.765637,143.330938 102.008244,143.330938 C101.756369,143.328063 101.511946,143.329501 101.270504,143.330938 L101.266033,143.330938 C99.9276699,143.343877 98.7070467,143.434446 97.5594523,143.566706 C96.3000792,143.71478 95.1286386,143.913169 93.9795538,144.120185 C93.9035443,144.133123 93.8275348,144.147499 93.7515253,144.160438 C92.9467188,144.304199 92.5010945,144.642036 92.241768,145.103508 C91.949653,145.623922 91.9004704,146.303911 91.8512878,147.044279 C91.8468166,147.123347 91.8408551,147.203853 91.8348936,147.282922 C89.427926,147.666763 87.147641,148.09517 85,148.550892 C85.0014904,148.549454 85.0014904,148.546579 85.0029808,148.546579 L85.4948069,148.072168 C86.9926412,146.627373 89.0955708,144.361703 90.1641749,142.62076 C90.6798472,141.814262 91.5397979,141.221968 92.5472964,141.032204 L92.5472964,141.007764 C96.0124354,140.345027 99.5252666,140.01294 103.063434,140.01294 C131.470122,139.94106 134.640166,140.01294 141.521261,144.539966 C142.011597,144.847614 142.503423,145.204141 143.044432,145.55923 C145.083275,146.981024 147.074426,148.427257 148.991058,149.991374 C148.994038,149.99425 148.997019,149.997125 149,150 C146.339667,149.243818 143.38871,148.512076 140.162033,147.86659" id="Fill-48" fill="#FAF9FA"></path>
                    <path d="M129,149.537418 L129,149.529704 C129.193426,147.58268 131.207332,146.748021 133.218394,147.065839 L137.662927,149.501933 L138,151 C135.205278,150.416818 132.210019,149.91232 129,149.537418" id="Fill-50" fill="#69BDBF"></path>
                    <g id="Group-54" transform="translate(36.000000, 368.000000)">
                        <mask id="mask-4" fill="white">
                            <use xlink:href="#path-3"></use>
                        </mask>
                        <g id="Clip-53"></g>
                        <path d="M126.601477,1.71264706 C132.034004,4.18323529 135.330884,10.0097059 134.262312,16.0861765 L116.320774,118.292059 C107.512158,168.472941 92.0380484,217.356765 70.3288615,263.584706 L26.1139165,357.743529 C22.9739604,364.425882 14.9200703,367.343529 8.12604835,364.253824 C1.33202637,361.165588 -1.63008352,353.239118 1.50837802,346.555294 L45.7248176,252.397941 C66.4401582,208.283235 81.2058725,161.637647 89.6109714,113.753824 L107.554004,11.5479412 C108.828818,4.28911765 115.839543,-0.577058824 123.214927,0.675882353 C124.413521,0.880294118 125.547851,1.23323529 126.601477,1.71264706" id="Fill-52" fill="#FF9E8D" mask="url(#mask-4)"></path>
                    </g>
                    <g id="Group-57" transform="translate(41.000000, 366.000000)">
                        <mask id="mask-6" fill="white">
                            <use xlink:href="#path-5"></use>
                        </mask>
                        <g id="Clip-56"></g>
                        <path d="M100.48221,12.9903 L82.6066648,117.2388 C74.2554148,165.9303 59.586392,213.3693 39.0149261,258.2268 L0.655744318,341.8743 C0.295494318,342.6603 0.643835227,343.6128 1.42239205,343.9743 L26.197767,355.5093 C26.9793011,355.8723 27.9230966,355.5228 28.2833466,354.7383 L66.6425284,271.0893 C88.3349375,223.7868 103.804847,173.7768 112.604176,122.4603 L130.478233,18.2118 C131.642347,11.3703 128.106835,4.5768 121.869449,1.6713 C120.666631,1.1118 119.390869,0.7083 118.065983,0.4728 C109.796608,-0.9537 101.897903,4.6593 100.48221,12.9903" id="Fill-55" fill="#4C8890" mask="url(#mask-6)"></path>
                    </g>
                    <g id="Group-60" transform="translate(76.000000, 368.000000)">
                        <mask id="mask-8" fill="white">
                            <use xlink:href="#path-7"></use>
                        </mask>
                        <g id="Clip-59"></g>
                        <path d="M13.4154783,0.516323529 C19.3517783,0.298676471 24.9291117,4.02514706 26.759545,9.92073529 L57.5476117,109.047206 C72.6642617,157.714853 81.289845,208.195735 83.1870283,259.086912 L87.048145,362.739853 C87.3225617,370.097206 81.525695,376.285441 74.103095,376.5575 C66.6790117,376.829559 60.4386283,371.0825 60.1642117,363.723676 L56.303095,260.070735 C54.4934283,211.5075 46.2624117,163.338382 31.836995,116.898676 L1.04892833,17.7707353 C-1.137505,10.7310294 2.84672833,3.26779412 9.94596167,1.10014706 C11.0985117,0.748676471 12.2644117,0.558970588 13.4154783,0.516323529" id="Fill-58" fill="#FFA898" mask="url(#mask-8)"></path>
                    </g>
                    <g id="Group-63" transform="translate(75.000000, 366.000000)">
                        <mask id="mask-10" fill="white">
                            <use xlink:href="#path-9"></use>
                        </mask>
                        <g id="Clip-62"></g>
                        <path d="M0.901877419,20.13945 L31.6981355,121.24845 C46.0798129,168.47595 54.2856194,217.46745 56.0885226,266.84745 L59.4524581,358.93095 C59.4851032,359.79495 60.2211032,360.48495 61.074329,360.45345 L88.2618129,359.43795 C89.1180065,359.40795 89.8005871,358.66395 89.7694258,357.79845 L86.4054903,265.71495 C84.5016839,213.64095 75.8581355,161.99295 60.6974258,112.22295 L29.9011677,11.11245 C27.8712323,4.48245 21.6864581,0.03645 14.8413613,0.29295 C13.5207161,0.34095 12.2074903,0.56445 10.9239419,0.95745 C2.93626452,3.45795 -1.57173548,12.06495 0.901877419,20.13945" id="Fill-61" fill="#54939B" mask="url(#mask-10)"></path>
                    </g>
                    <path d="M101,149.5 C101,156.955668 107.044332,163 114.5,163 C121.955668,163 128,156.955668 128,149.5 C128,142.044332 121.955668,136 114.5,136 C107.044332,136 101,142.044332 101,149.5" id="Fill-64" fill="#FFA898"></path>
                    <path d="M112.673733,176.97766 C113.31297,177.013504 113.941752,177.004543 114.561572,176.962725 C122.268254,176.441494 128.542628,170.2375 128.963808,162.326437 L131.977777,105.313615 C132.431814,96.769308 125.873667,89.4765534 117.327614,89.0240233 C108.703896,88.5505842 101.490083,95.1324333 101.03754,103.675246 L98.0220762,160.688069 C97.5695326,169.232376 104.129174,176.528117 112.673733,176.97766" id="Fill-66" fill="#FFA898"></path>
                    <path d="M100,129.763634 L101.355457,103.737865 C101.804813,95.1586001 108.942765,88.5486666 117.477563,89.0241258 C125.935498,89.4785869 132.426024,96.8024592 131.978147,105.383224 L130.018129,143 C124.872713,141.840599 119.493751,140.039254 113.90637,137.561466 C109.111274,135.434648 104.446254,132.776876 100,129.763634" id="Fill-68" fill="#F48989"></path>
                    <g id="Group-72" transform="translate(76.000000, 368.000000)">
                        <mask id="mask-12" fill="white">
                            <use xlink:href="#path-11"></use>
                        </mask>
                        <g id="Clip-71"></g>
                        <path d="M0.33305,13.8442647 C0.33305,21.2089706 6.42305,27.1795588 13.93505,27.1795588 C21.44705,27.1795588 27.53705,21.2089706 27.53705,13.8442647 C27.53705,6.47955882 21.44705,0.508970588 13.93505,0.508970588 C6.42305,0.508970588 0.33305,6.47955882 0.33305,13.8442647" id="Fill-70" fill="#FFA898" mask="url(#mask-12)"></path>
                    </g>
                    <g id="Group-75" transform="translate(142.000000, 368.000000)">
                        <mask id="mask-14" fill="white">
                            <use xlink:href="#path-13"></use>
                        </mask>
                        <g id="Clip-74"></g>
                        <path d="M0.739642105,13.8442647 C0.739642105,21.2089706 6.7228,27.1795588 14.1030105,27.1795588 C21.4846947,27.1795588 27.4663789,21.2089706 27.4663789,13.8442647 C27.4663789,6.47955882 21.4846947,0.508970588 14.1030105,0.508970588 C6.7228,0.508970588 0.739642105,6.47955882 0.739642105,13.8442647" id="Fill-73" fill="#FFA898" mask="url(#mask-14)"></path>
                    </g>
                    <path d="M58,169 C58,174.523882 62.4776346,179 68,179 C73.5223654,179 78,174.523882 78,169 C78,163.477635 73.5223654,159 68,159 C62.4776346,159 58,163.477635 58,169" id="Fill-76" fill="#FFA898"></path>
                    <path d="M149,169 C149,174.523882 153.477635,179 159,179 C164.522365,179 169,174.523882 169,169 C169,163.477635 164.522365,159 159,159 C153.477635,159 149,163.477635 149,169" id="Fill-78" fill="#FFA898"></path>
                    <g id="Group-82" transform="translate(57.000000, 149.000000)">
                        <mask id="mask-16" fill="white">
                            <use xlink:href="#path-15"></use>
                        </mask>
                        <g id="Clip-81"></g>
                        <path d="M1.96835059,24.6215341 C-0.665778824,19.8799 1.05843294,13.9078512 5.82018588,11.286339 C6.63298588,10.837022 26.0834094,0.328656098 58.5177153,0.328656098 C58.5177153,0.328656098 58.5192094,0.328656098 58.5192094,0.328656098 C58.5207035,0.328656098 58.5221976,0.328656098 58.5221976,0.328656098 C88.6211976,0.328656098 106.725421,11.0185341 107.482939,11.4738024 C112.140104,14.2768268 113.632727,20.3098756 110.817809,24.9473634 C109.886974,26.4812902 108.572151,27.7042659 107.039186,28.5225585 C103.931421,30.1799732 102.573268,33.9069244 103.903033,37.1592659 C103.904527,37.1607537 103.904527,37.1637293 103.906021,37.1667049 C105.722868,41.6137537 109.107045,45.2320951 113.432515,47.3551927 C120.619221,50.8842659 125.566245,58.2444366 125.566245,66.7650951 C125.566245,76.9892902 118.442292,85.5367293 108.873962,87.8115829 C106.192021,103.414193 96.3861271,123.194559 104.802492,146.401339 C107.432139,153.654388 109.688256,159.422607 111.578315,164.658193 C116.453621,175.839046 118.590209,189.91368 118.590209,205.681437 C118.590209,252.407437 99.4640094,254.283559 51.2563035,254.283559 C51.2563035,254.283559 2.00420941,256.28168 2.66012706,215.300095 C2.79459765,206.911851 5.56469176,195.457241 7.92091529,188.236924 C14.2514918,168.844876 23.1743624,160.243876 28.2319506,152.911973 C38.3650565,138.216924 38.7789271,118.839754 29.1119859,103.670095 C24.6131976,96.6119488 20.1846329,87.1822415 15.8651388,74.5760707 C11.6337976,62.221339 9.91705647,51.897461 10.2592094,43.3515098 C10.5057388,37.189022 8.12112706,31.1976317 3.69555059,26.8829976 C3.02319765,26.2253878 2.43750353,25.4666073 1.96835059,24.6215341" id="Fill-80" fill="#FFA898" mask="url(#mask-16)"></path>
                    </g>
                    <path d="M111.526021,227.258134 L168.265677,227.258134 C172.595883,227.258134 176.618697,225.980076 180,223.801771 C176.736011,231.55276 169.036382,237 160.053729,237 L113.61836,237 C101.679109,237 92,227.380627 92,215.51506 C92,215.340914 92.0222747,215.174146 92.0267297,215 C95.5015862,222.241833 102.916099,227.258134 111.526021,227.258134" id="Fill-83" fill="#F48989"></path>
                    <g id="Group-87" transform="translate(75.000000, 366.000000)">
                        <mask id="mask-18" fill="white">
                            <use xlink:href="#path-17"></use>
                        </mask>
                        <g id="Clip-86"></g>
                        <path d="M15.43415,30.9543 C23.88965,30.9543 30.76715,24.0753 30.76715,15.6213 C30.76715,7.1673 23.88965,0.2868 15.43415,0.2868 C6.97865,0.2868 0.09965,7.1673 0.09965,15.6213 C0.09965,24.0753 6.97865,30.9543 15.43415,30.9543" id="Fill-85" fill="#73FFC4" mask="url(#mask-18)"></path>
                    </g>
                    <g id="Group-90" transform="translate(141.000000, 366.000000)">
                        <mask id="mask-20" fill="white">
                            <use xlink:href="#path-19"></use>
                        </mask>
                        <g id="Clip-89"></g>
                        <path d="M15.6037762,30.9543 C23.9250619,30.9543 30.6933952,24.0753 30.6933952,15.6213 C30.6933952,7.1673 23.9250619,0.2868 15.6037762,0.2868 C7.28249048,0.2868 0.512680952,7.1673 0.512680952,15.6213 C0.512680952,24.0753 7.28249048,30.9543 15.6037762,30.9543" id="Fill-88" fill="#73FFC4" mask="url(#mask-20)"></path>
                    </g>
                    <g id="Group-93" transform="translate(57.000000, 317.000000)">
                        <mask id="mask-22" fill="white">
                            <use xlink:href="#path-21"></use>
                        </mask>
                        <g id="Clip-92"></g>
                        <path d="M0.932148148,47.2256549 C0.758864198,58.3067529 4.08561728,67.3731059 10.8317407,74.2026745 C23.4934198,87.027302 44.1321358,88.0361647 50.1403086,88.0361647 C50.9051481,88.0361647 51.3234198,88.0108314 51.3234198,88.0108314 L51.3712222,88.0108314 C99.1527778,88.0108314 120.284457,85.9707529 120.284457,37.619851 C120.284457,23.8742824 118.675605,11.9586745 115.496741,2.10698824 C115.218889,1.24863529 114.418198,0.667458824 113.512938,0.667458824 L16.2498519,0.667458824 C15.3445926,0.667458824 14.5050617,1.15177255 14.0554198,1.93412549 C11.3247037,6.68338039 8.6238642,12.4236157 6.2755679,19.6093412 C3.91233333,26.9321647 1.07854321,38.5273804 0.932148148,47.2256549" id="Fill-91" fill="#54939B" mask="url(#mask-22)"></path>
                    </g>
                    <path d="M80.0728078,308 C79.7564045,308 79.4564184,308.155909 79.26389,308.419395 C77.2833844,311.147802 75.1536319,314.259744 73,318 L170,318 C169.435847,316.250702 168.819457,314.580917 168.129937,312.934518 C167.612051,311.40817 167.047897,309.858435 166.461357,308.216713 C166.415091,308.08575 166.294201,308 166.161371,308 L80.0728078,308 Z" id="Fill-94" fill="#4B7D88"></path>
                    <path d="M145.537157,162.224115 C145.723083,163.158228 145.867362,164.084939 146.038415,165.016091 C146.294249,166.41504 146.564958,167.815469 146.786582,169.204055 C146.965071,170.324694 147.098938,171.437932 147.255117,172.55561 C147.421707,173.745827 147.60912,174.940485 147.750424,176.12626 C147.899165,177.378653 148.003284,178.623643 148.126739,179.871594 C148.227883,180.912293 148.352826,181.955954 148.436121,182.992212 C148.541727,184.321583 148.602711,185.646514 148.678569,186.972924 C148.733603,187.921841 148.810948,188.876679 148.849621,189.824115 C148.90763,191.212701 148.918042,192.598327 148.943328,193.985432 C148.958202,194.861811 148.996875,195.74263 148.999849,196.616048 C149.002824,198.151191 148.961177,199.684853 148.925479,201.218515 C148.910605,201.937975 148.915067,202.660395 148.889781,203.378374 C148.812436,205.627054 148.693443,207.872774 148.531315,210.118494 C148.48223,210.82611 147.57491,215.706887 147.967586,216 C147.747449,215.828277 143.552951,212.485604 141.125497,210.458979 C121.37417,194.078696 103.421122,176.181034 90.2144021,154.273053 C89.0616587,152.394465 87.541525,150.709805 85.5796302,149.660223 C85.0768854,149.398198 84.550342,149.233877 84,149.156898 C84.0059496,149.149496 84.0133867,149.143574 84.0193363,149.136172 C86.2073175,148.638769 88.5366028,148.168011 91.0057046,147.747586 C92.6002089,147.476679 94.2274362,148.064385 95.2775482,149.288651 C97.3971085,151.757906 98.9737639,154.711242 100.760144,157.34926 C107.758412,167.825831 118.432071,181.5 141.640141,201.379876 C142.052154,185.653915 140.056049,169.597833 136.392556,154.786741 C135.681574,151.979961 135.410865,148.270157 132.590734,147 C135.999879,147.464836 139.163602,148.074748 142.081902,148.733512 C143.038307,150.734971 143.454782,152.955525 143.994712,155.177558 C144.558441,157.538747 145.073085,159.888093 145.537157,162.224115" id="Fill-96" fill="#69BDBF"></path>
                    <path d="M123.17862,229 C122.05213,227.205471 120.903377,225.537318 119.785791,224.108534 C114.89246,217.809099 90.8873818,201.973536 85.1124492,198.22242 C84.4030126,197.78085 84.2071012,196.875409 84.6226708,196.21231 L93.5054699,182.264942 C93.5054699,182.264942 81.1244657,176.55278 76.9153398,174.617009 C76.2786279,174.347904 75.935783,173.71008 76.0099918,173.097532 C76.5724949,168.292299 79.0199027,161.109723 80.9033233,155.937258 C81.7626618,153.543562 83.0242122,151.363961 84.6375125,149.426702 C85.1851738,149.502528 85.7120567,149.669045 86.2137085,149.932203 C88.1713379,150.986322 89.6881668,152.678263 90.8384039,154.564972 C104.016411,176.567648 121.930427,194.54267 141.637329,210.993756 C144.06099,213.029141 148.246369,216.386262 148.466027,216.558727 C148.074205,216.264347 148.979552,211.362474 149.02853,210.650312 C149.188821,208.396372 149.307556,206.140946 149.386217,203.882545 C149.411448,203.159976 149.405511,202.43592 149.421837,201.711864 C149.457457,200.171573 149.499014,198.632768 149.494562,197.09099 C149.491594,196.210824 149.454489,195.32917 149.438163,194.449004 C149.414416,193.055902 149.402543,191.664288 149.346144,190.268213 C149.306071,189.316682 149.230378,188.36069 149.175464,187.406185 C149.099771,186.074041 149.03892,184.743384 148.933543,183.40678 C148.848945,182.366042 148.725758,181.317871 148.624834,180.27416 C148.501647,179.020815 148.397755,177.768956 148.249337,176.512638 C148.106856,175.32025 147.91985,174.120428 147.755106,172.925067 C147.599268,171.804044 147.465692,170.685995 147.287591,169.560511 C147.066448,168.16295 146.796328,166.757954 146.54105,165.354445 C146.370369,164.417782 146.226404,163.488552 146.040882,162.550401 C145.576335,160.199822 145.064294,157.841808 144.501791,155.4719 C143.963034,153.241748 143.547465,151.01011 142.593139,149 C145.502126,149.669045 148.148413,150.403509 150.546843,151.151353 C154.813852,154.826643 158.816677,158.910794 162.682958,163.757657 C165.557809,167.340767 168.589983,170.779661 170.932014,173.357716 C170.691577,173.931609 170.455593,174.509961 170.121653,175.058579 C168.946185,177.019625 167.258676,178.637229 165.252069,179.716622 C163.490351,180.647339 162.706705,182.779364 163.466604,184.64377 C163.466604,184.64377 163.490351,184.667559 163.490351,184.691347 C165.032411,188.442462 167.870157,191.50669 171.51678,193.295272 C174.433187,194.734463 176.932541,196.713351 179,199.038656 C178.202997,211.163247 172.509694,222.590544 167.073154,229 L123.17862,229 Z" id="Fill-98" fill="#5FA2A8"></path>
                    <g id="Group-102" transform="translate(128.000000, 238.000000)">
                        <mask id="mask-24" fill="white">
                            <use xlink:href="#path-23"></use>
                        </mask>
                        <g id="Clip-101"></g>
                        <path d="M0.1799,0.997067308 L31.7114,0.997067308 C29.7764,5.18504808 28.9784,9.22697115 28.7804,10.3134615 L28.7804,37.9332692 L28.7804,173.850385 C22.4384,174.634327 14.2409,175.147019 3.7274,175.185769 L3.7274,12.574375 C3.6929,9.83355769 2.2619,5.53528846 0.1799,0.997067308" id="Fill-100" fill="#5FA2A8" mask="url(#mask-24)"></path>
                    </g>
                    <path d="M124.492206,231.52083 C124.446086,231.440539 124.401454,231.361763 124.355334,231.281473 C123.909011,230.505832 123.458225,229.742312 123.001488,229.00303 C123.001488,229.00303 123,229.001515 123,229 L167,229 C166.985123,229.018179 166.971733,229.031813 166.956855,229.048478 C166.180254,229.97561 165.408115,230.802757 164.65978,231.510226 C164.156923,231.976822 163.695723,232.48735 163.250888,233.011513 C163.149721,233.129677 163.05153,233.247841 162.954827,233.36752 C162.524869,233.899258 162.118715,234.446145 161.742316,235.01424 C161.722975,235.043024 161.70661,235.073322 161.68727,235.102106 C161.312358,235.674746 160.967202,236.261021 160.641386,236.85487 C160.596754,236.939706 160.549146,237.021512 160.504514,237.106348 C160.166796,237.73504 159.855858,238.366763 159.570211,238.998485 L159.570211,239 L128.296365,239 L128.294877,238.998485 C127.17907,236.504923 125.877295,233.94925 124.492206,231.52083" id="Fill-103" fill="#517C88"></path>
                    <g id="Group-107" transform="translate(49.000000, 148.000000)">
                        <mask id="mask-26" fill="white">
                            <use xlink:href="#path-25"></use>
                        </mask>
                        <g id="Clip-106"></g>
                        <path d="M0.39504386,376.210884 C0.39504386,376.974229 0.690307018,377.710738 1.23162281,378.250447 C1.77144737,378.791647 2.48425439,379.086847 3.24776316,379.086847 L79.8789912,379.086847 C81.4567105,379.086847 82.734693,377.807647 82.734693,376.231756 L82.734693,265.19332 L82.734693,102.524702 C82.7003947,99.7814291 81.2777632,95.4831382 79.2079386,90.94332 L62.7164474,90.94332 L62.471886,90.94332 C50.4824123,90.94332 40.7640789,81.2255745 40.7640789,69.2401564 C40.7640789,69.0642291 40.7849561,68.8942655 40.7894298,68.7198291 C44.2803947,76.03572 51.7246053,81.10332 60.3722368,81.10332 L60.6182895,81.10332 L73.8991667,81.10332 C72.7673246,79.3037927 71.613114,77.6309927 70.4902193,76.1967382 C65.5736404,69.8797564 41.4545175,54.0000836 35.6521491,50.2400109 C34.9393421,49.7972109 34.7425,48.8877564 35.1600439,48.2243018 L44.0850439,34.2365927 C44.0850439,34.2365927 31.6452193,28.5100109 27.4160965,26.5673564 C26.7763596,26.2975018 26.431886,25.6593927 26.5064474,25.0436473 C27.0716228,20.22652 29.5306579,13.0239382 31.4230263,7.83706545 C32.2864474,5.43670182 33.5539912,3.24953818 35.1749561,1.30837455 C35.1809211,1.30092 35.1883772,1.29346545 35.1928509,1.28601091 C35.4582895,0.968447273 35.710307,0.641938182 35.9966228,0.340774545 C21.0724123,3.63419273 12.5157456,8.27986545 11.9759211,8.57506545 C5.43539474,12.1875382 3.0747807,20.4218291 6.68951754,26.9371018 C7.32776316,28.0925564 8.11513158,29.14812 9.05013158,30.0590655 C12.7125877,33.6476836 14.7048684,38.6616109 14.5080263,43.7739382 C14.1382018,53.0906291 16.0812719,64.0786291 20.2850439,76.4188836 C24.5141667,88.8083382 28.9639912,98.5916836 33.8820614,106.357829 C42.7325,120.272484 42.4133772,138.04412 33.094693,151.636738 C27.9708333,158.955611 18.7759211,168.18732 12.3442544,187.968702 C9.98364035,195.220484 7.74679825,204.732484 7.1070614,212.74612 C5.92600877,215.131575 0.739517544,342.337429 0.39504386,376.210884" id="Fill-105" fill="#E9E3E8" mask="url(#mask-26)"></path>
                    </g>
                    <path d="M125,232 C126.456964,234.273298 127.826291,236.665721 129,239 C127.826291,236.665721 126.453834,234.270462 125,232" id="Fill-108" fill="#E9E3E8"></path>
                    <path d="M123,229 C123.308,229.648936 123.611,230.319149 123.911,231 C123.611,230.319149 123.308,229.648936 123,229" id="Fill-110" fill="#E9E3E8"></path>
                    <path d="M150.399056,151.192952 C149.929676,150.798269 149.475437,150.385781 149,150 C159.783636,153.132241 165.924949,156.703679 166.374645,156.973725 C172.366059,160.496198 174.613028,167.883895 171.792203,174 C171.608994,173.804142 171.389445,173.562287 171.195636,173.35456 C168.806338,170.7817 165.71297,167.349737 162.7801,163.773849 C158.83579,158.936754 154.752181,154.860835 150.399056,151.192952" id="Fill-112" fill="#E9E3E8"></path>
                    <path d="M180,232 C180.73536,231.041272 181.401038,230.039041 182,229 C181.401038,230.040714 180.73536,231.039598 180,232" id="Fill-114" fill="#E9E3E8"></path>
                    <path d="M182,229 C182.751391,228.033951 183.419295,227.032407 184,226 C183.419295,227.032407 182.753247,228.030864 182,229" id="Fill-116" fill="#E9E3E8"></path>
                    <path d="M177,234 C177.723274,233.369896 178.390348,232.700792 179,232 C178.390348,232.702011 177.723274,233.368678 177,234" id="Fill-118" fill="#E9E3E8"></path>
                    <path d="M172.786696,228.952568 L171.679494,228.952568 L167.043273,228.952568 C167.028352,228.968873 167.014922,228.983695 167,229 C167.014922,228.983695 167.028352,228.968873 167.043273,228.952568 C172.509149,222.562542 178.231681,211.169886 179.034477,199.08205 C179.058352,198.720379 179.097149,198.361672 179.112071,198 C183.491636,202.595008 186,208.728603 186,215.327627 C186,219.048102 185.165868,222.682605 183.591612,226.023621 C180.402812,227.854212 176.735019,228.952568 172.786696,228.952568" id="Fill-120" fill="#E9E3E8"></path>
                    <g id="Group-124" transform="translate(156.000000, 234.000000)">
                        <mask id="mask-28" fill="white">
                            <use xlink:href="#path-27"></use>
                        </mask>
                        <g id="Clip-123"></g>
                        <path d="M0.26318,14.7409346 C0.45854,13.6576542 1.24738,9.6276729 3.15658,5.45206542 L6.96018,5.45206542 L8.05834,5.45206542 C11.66214,5.45206542 15.03802,4.52927103 18.02318,2.95858879 C19.04438,2.28395327 19.9975,1.55582243 20.87958,0.78311215 C19.69262,1.82478505 18.42722,2.81147664 16.99014,3.66888785 C14.0035,5.44909346 11.84566,8.34972897 10.99318,11.7288505 C10.62318,13.2014579 10.24578,14.6369159 9.9261,15.8435327 C7.80378,23.9777944 5.48462,32.7970935 5.48462,42.2791402 C5.48462,48.0358318 6.33858,54.0139346 8.58374,60.262486 C12.4125,70.9704673 15.04246,77.3438411 16.9191,82.6458224 C21.95406,96.8622056 27.03194,109.662449 28.66586,124.011084 L24.5115,124.011084 C23.55986,124.011084 22.80358,125.28457 22.80358,126.85228 L22.80358,136.383364 L22.80358,169.801598 C22.80358,172.668056 23.75522,175.289327 25.26926,176.660888 C26.91798,178.115664 28.97518,179.059262 31.1789,179.528832 C31.42902,179.582327 31.67618,179.561523 31.91594,179.509514 C33.63422,219.265458 35.45166,270.185579 35.65146,289.776757 C35.65146,291.365271 34.39494,292.643215 32.82022,292.643215 L3.09738,292.643215 C1.53154,292.643215 0.26318,291.369729 0.26318,289.797561 L0.26318,177.794692 L0.26318,42.2791402 L0.26318,14.7409346 Z" id="Fill-122" fill="#E9E3E8" mask="url(#mask-28)"></path>
                    </g>
                    <path d="M161,237 C161.219,236.322971 161.451,235.65285 161.703,235 C161.451,235.65285 161.219,236.322971 161,237" id="Fill-125" fill="#E9E3E8"></path>
                    <path d="M162,236 C162.252,235.310028 162.526,234.645814 162.814,234 C162.527,234.645814 162.252,235.310028 162,236" id="Fill-127" fill="#E9E3E8"></path>
                    <path d="M160,239 C160.191,238.3328 160.401,237.6656 160.628,237 C160.402,237.664 160.191,238.3328 160,239" id="Fill-129" fill="#E9E3E8"></path>
                    <path d="M163,232.992 C163.299,232.645 163.609,232.309 163.947,232 C163.609,232.309 163.298,232.645 163,232.992" id="Fill-131" fill="#E9E3E8"></path>
                    <path d="M164.943546,239 L163.836359,239 L160,239 C160.286496,238.367887 160.601343,237.734258 160.93708,237.105177 C160.983337,237.020289 161.029595,236.938433 161.075852,236.855061 C161.401144,236.260844 161.748819,235.672691 162.124845,235.099697 C162.144243,235.070896 162.160657,235.042094 162.178563,235.013293 C162.554588,234.444846 162.964934,233.896105 163.394678,233.365555 C163.491669,233.244286 163.591644,233.127565 163.691619,233.009328 C164.136285,232.483326 164.60184,231.973997 165.1047,231.505597 C165.856752,230.799207 166.629694,229.970033 167.408605,229.043843 C167.423526,229.025653 167.436956,229.01201 167.451878,228.995336 L172.08953,228.995336 L173.195225,228.995336 C177.143497,228.995336 180.811241,227.872085 184,226 C183.532952,227.014109 182.995772,227.997901 182.391445,228.946828 C182.383984,228.958955 182.375031,228.972598 182.366078,228.986241 C181.763243,229.927589 181.09326,230.835588 180.353146,231.704174 C180.344193,231.714785 180.333748,231.728428 180.323303,231.739039 C179.578712,232.612174 178.763989,233.442864 177.880627,234.228078 C177.87615,234.23111 177.874658,234.234142 177.870182,234.237174 C176.980851,235.02542 176.019896,235.76819 174.988809,236.45639 C171.980602,238.058652 168.576971,239 164.943546,239" id="Fill-133" fill="#D3C6CF"></path>
                    <path d="M122.753995,229.260432 C123.207991,229.980679 123.654616,230.72454 124.096819,231.480209 C124.14104,231.558433 124.186734,231.63518 124.230954,231.713404 C125.601784,234.076345 126.893018,236.569167 128,238.998524 L128,239 L111.698914,239 L111.457176,239 C99.6061288,239 90,229.379981 90,217.515095 C90,217.340937 90.0206362,217.172682 90.0250582,217 C93.4757176,224.242319 100.83398,229.258956 109.381769,229.258956 L109.624981,229.258956 L122.752521,229.258956 C122.753995,229.258956 122.753995,229.260432 122.753995,229.260432" id="Fill-135" fill="#D3C6CF"></path>
                    <path d="M179,370 L179,360.755705 C179,359.235167 179.744405,358 180.681102,358 L184.770229,358 L188.005695,358 C188.815654,358 189.481393,358.626952 189.522182,359.429738 C189.683883,362.656738 189.833929,366.176315 190,370 L179,370 Z" id="Fill-137" fill="#FAF9FA"></path>
                    <g id="Group-141" transform="translate(179.000000, 370.000000)">
                        <mask id="mask-30" fill="white">
                            <use xlink:href="#path-29"></use>
                        </mask>
                        <g id="Clip-140"></g>
                        <path d="M8.29428889,43.7231 C6.14351111,43.2491 4.13717778,42.2966 2.52662222,40.8281 C1.04895556,39.4421 0.120177778,36.7961 0.120177778,33.9026 L0.120177778,0.1691 L11.0286222,0.1691 C11.3377333,8.0591 11.6468444,17.2091 11.9805111,27.8936 L11.9805111,27.9926 C12.0368444,31.0196 11.8346222,39.9116 10.1532889,42.8741 C9.90051111,43.3181 9.47873333,43.6001 9.01506667,43.7036 C8.77962222,43.7561 8.5384,43.7771 8.29428889,43.7231" id="Fill-139" fill="#E1D9DF" mask="url(#mask-30)"></path>
                    </g>
                    <path d="M60.4792529,161.464779 C59.8512588,162.023808 59.2856187,162.672282 58.8001481,163.407218 L8.92435323,239.102707 C0.00921264158,252.634187 1.26074695,270.569323 11.9707926,282.718884 L71.878162,350.684867 C75.4605491,354.750125 81.6499281,355.128774 85.6984857,351.531609 C89.7470433,347.931464 90.1241367,341.718044 86.5417496,337.652786 L26.6343802,269.686803 C21.7885819,264.190431 21.2214572,256.076314 25.2566533,249.952339 L75.1309635,174.258341 C78.1150489,169.729462 76.8783608,163.629339 72.3680865,160.632944 C68.5912143,158.124023 63.7172082,158.587644 60.4792529,161.464779" id="Fill-142" fill="#FFA898"></path>
                    <path d="M108.321314,362.087409 C107.92634,365.058258 107.028672,367.921076 105.644767,370.588839 L100.821297,379.877994 C99.9026835,381.651501 97.7243422,382.340198 95.955936,381.414433 C95.770418,381.318406 95.5968688,381.207374 95.4367847,381.08584 C94.8936955,380.673222 94.1994988,380.521678 93.5352244,380.670221 C92.87095,380.818763 92.303923,381.253888 91.9897391,381.85856 L91.8894995,382.052116 C90.9708858,383.825623 88.7925446,384.512819 87.0241384,383.590055 C85.4532192,382.769321 84.7350847,380.952301 85.2422672,379.312333 C85.305104,379.108274 85.3873902,378.905716 85.4921182,378.70916 C85.6147995,378.470592 85.5968461,378.18551 85.4457387,377.966448 C85.2931351,377.748886 85.0343074,377.633353 84.7694953,377.666362 C84.0767948,377.753387 83.354172,377.640855 82.6854092,377.292755 C80.915507,376.369991 80.2422559,374.185367 81.1489007,372.41186 C81.2820548,372.153786 81.2670936,371.846198 81.1100017,371.604629 C80.9514137,371.36306 80.6761288,371.226521 80.388875,371.246027 C79.848778,371.280537 79.2937199,371.168004 78.7835452,370.887424 C77.3547568,370.099699 76.8415899,368.308187 77.6195689,366.866275 L81.2072491,360.327405 C81.6351375,359.548683 81.7264005,358.631921 81.4645806,357.785679 C81.2027607,356.939437 80.6088037,356.237236 79.8203519,355.836622 C72.04505,351.897996 67.1093715,345.785248 68.1342093,340.529246 C69.4343319,333.876344 79.7919257,331.112554 91.2686124,334.362483 C113.216598,340.58026 111.057706,341.361984 108.321314,362.087409" id="Fill-144" fill="#FFA898"></path>
                    <path d="M9.87985513,284.68268 L57.1539147,338.320081 C57.8878228,339.153862 59.1554823,339.231284 59.9857621,338.494282 L77.1176975,323.268853 C77.9464947,322.530362 78.0235921,321.257358 77.289684,320.423577 L30.0156244,266.786176 C26.2734345,262.539851 25.8390202,256.271608 28.951087,251.539903 L78.7723266,175.951741 C80.7561024,172.944175 81.4410833,169.351474 80.7220017,165.793018 C79.9984721,162.271784 77.9687343,159.225507 74.9723136,157.233367 C69.89278,153.878889 63.1823396,154.338957 58.6439706,158.372371 C57.7454891,159.170418 56.9804455,160.080132 56.3340134,161.049402 L6.52611755,236.655431 C-3.29638974,251.550326 -1.91308419,271.301991 9.87985513,284.68268" id="Fill-146" fill="#F2EEF1"></path>
                    <polygon id="Fill-148" fill="#EDE7EB" points="45 325.731631 52.4915327 334 73 316.268369 65.5084673 308"></polygon>
                    <path d="M178.577723,195 C178.933539,195 179.295236,194.920442 179.636349,194.749317 C180.840535,194.151881 181.340441,192.670299 180.755257,191.440902 C179.127621,188.02741 164.736198,157.943949 160.964845,153.173467 C156.678883,147.751509 153.56476,145 148.424546,145 C147.085091,145 146,146.10931 146,147.475307 C146,148.841304 147.085091,149.950614 148.424546,149.950614 C151.078461,149.950614 152.882535,150.830256 157.190552,156.282236 C160.091479,159.949413 172.036301,184.469813 176.395779,193.608484 C176.816289,194.489627 177.677892,195 178.577723,195" id="Fill-150" fill="#5A3C55"></path>
                    <path d="M173.062609,199.345332 C173.389898,196.271276 174.95216,193.833988 177.26646,192.794664 C177.286825,192.785881 177.307189,192.777098 177.327554,192.768315 C177.308644,192.775634 177.283915,192.787344 177.26646,192.794664 C177.283915,192.787344 177.301371,192.778561 177.318826,192.771242 L180.171335,191.52259 C180.155335,191.528445 180.139334,191.535764 180.123333,191.543083 C180.910282,191.190299 181.783054,191 182.724193,191 C187.367339,191 191.889752,195.656464 192.827981,201.385921 C193.582929,205.99115 191.792292,209.890811 188.64595,211.241932 C188.660496,211.237541 188.673588,211.231685 188.686679,211.22583 L185.83417,212.475947 C185.463242,212.638432 185.071949,212.764322 184.66611,212.853616 C184.504648,212.887285 184.340276,212.916561 184.174449,212.939983 C183.88207,212.978042 183.580964,213 183.272585,213 C182.647098,213 182.023066,212.915097 181.409217,212.755539 L181.410671,212.755539 L181.409217,212.755539 C181.112474,212.677956 180.817187,212.581343 180.524808,212.470091 C179.153102,211.941646 177.85849,211.041387 176.742797,209.871781 C175.686743,208.765121 174.789243,207.416927 174.139028,205.916495 C173.923744,205.420254 173.734643,204.907911 173.57609,204.38093 C173.404445,203.812962 173.269165,203.230355 173.171706,202.634573 C173.045154,201.861667 172.989878,201.109255 173.001515,200.383192 C173.005879,200.030408 173.027698,199.683479 173.062609,199.345332" id="Fill-152" fill="#C5B6C1"></path>
                    <path d="M186.880008,205.413122 C186.867322,205.42371 186.85305,205.434298 186.840364,205.444886 C186.813406,205.464549 186.788033,205.484213 186.762661,205.503876 C186.754732,205.508414 186.748389,205.514464 186.740461,205.519002 C186.734118,205.525052 186.726189,205.52959 186.71826,205.534127 C186.691302,205.553791 186.662758,205.571942 186.632629,205.591605 L186.597742,205.612781 C186.554926,205.638495 186.513697,205.664209 186.469295,205.686897 C186.42648,205.709586 186.383664,205.730762 186.339263,205.751938 C186.324991,205.757988 186.312305,205.764039 186.298033,205.770089 C186.266318,205.785215 186.233017,205.798828 186.201301,205.810928 C186.187029,205.816979 186.171172,205.823029 186.155314,205.827567 C186.120427,205.84118 186.085541,205.854793 186.050654,205.865381 L186.05224,205.865381 C186.039554,205.868406 186.026867,205.874456 186.014181,205.877482 C185.919036,205.907733 185.819133,205.931934 185.717644,205.950085 C185.712886,205.951598 185.708129,205.95311 185.703372,205.95311 C185.649456,205.963698 185.592368,205.972774 185.536867,205.978824 C185.527352,205.980337 185.519423,205.980337 185.509909,205.981849 C185.473436,205.984874 185.436964,205.987899 185.398905,205.990925 C185.383048,205.992437 185.36719,205.99395 185.349747,205.995462 C185.297417,205.998487 185.243501,206 185.189585,206 C184.658354,206 184.130295,205.859331 183.637123,205.606731 C182.376442,204.9654 181.34411,203.599546 181.069774,202.009832 C181.033301,201.802609 181.0111,201.599924 181.003172,201.400265 C181,201.333711 181,201.268671 181,201.202118 C181,201.143127 181.001586,201.084137 181.004757,201.025147 L181.004757,201.010021 C181.007929,200.94498 181.012686,200.881452 181.017443,200.819437 C181.019029,200.808849 181.020615,200.798261 181.022201,200.787673 C181.025372,200.746833 181.031715,200.707506 181.034887,200.666667 L181.034887,200.668179 C181.038058,200.651541 181.039644,200.634903 181.042816,200.618264 L181.04123,200.619777 C181.049159,200.565324 181.058673,200.512384 181.068188,200.460957 L181.068188,200.465494 L181.069774,200.448856 C181.080874,200.394403 181.091974,200.339951 181.10466,200.287011 C181.106246,200.282473 181.106246,200.277935 181.107832,200.273398 C181.122104,200.214407 181.136376,200.156929 181.153819,200.100964 C181.15699,200.090376 181.160162,200.081301 181.163334,200.070713 L181.163334,200.072225 C181.174434,200.034411 181.18712,199.996597 181.19822,199.961808 L181.19822,199.96332 C181.202978,199.948194 181.207735,199.933069 181.212492,199.919455 L181.212492,199.920968 C181.229936,199.871053 181.247379,199.824163 181.266408,199.775761 L181.267994,199.769711 C181.312395,199.662318 181.359968,199.559463 181.412298,199.461146 C181.417056,199.453583 181.423399,199.444507 181.42657,199.436945 C181.436085,199.420306 181.445599,199.403668 181.455114,199.38703 C181.463043,199.371904 181.470971,199.358291 181.4789,199.344678 C181.4789,199.34619 181.477315,199.34619 181.477315,199.34619 C181.486829,199.331064 181.496344,199.315939 181.505858,199.2993 C181.505858,199.2993 181.504273,199.300813 181.504273,199.300813 C181.528059,199.264511 181.55026,199.228209 181.574046,199.19342 L181.57246,199.194933 C181.577218,199.188883 181.581975,199.18132 181.585146,199.175269 C181.678706,199.04065 181.781781,198.913594 181.892784,198.797126 C181.897542,198.794101 181.902299,198.789563 181.907056,198.785026 L181.90547,198.785026 C181.9356,198.754774 181.965729,198.726035 181.995859,198.697296 L181.98793,198.706372 L182.011717,198.682171 L182.010131,198.683683 C182.046603,198.650407 182.084662,198.618642 182.12272,198.586878 L182.121134,198.588391 C182.132234,198.579316 182.143335,198.57024 182.156021,198.561165 C182.154435,198.562677 182.152849,198.56419 182.151264,198.565702 C182.178222,198.543014 182.206765,198.520325 182.236895,198.499149 L182.235309,198.500662 L182.282882,198.467385 C182.308254,198.449234 182.335212,198.431083 182.36217,198.414445 L182.358999,198.415958 C182.37327,198.406882 182.389128,198.396294 182.404986,198.387219 L182.401814,198.388731 C182.436701,198.367555 182.473173,198.346379 182.50806,198.326716 C182.50806,198.326716 182.50806,198.326716 182.506474,198.326716 C182.514403,198.323691 182.519161,198.319153 182.527089,198.316128 C182.902915,198.11193 183.334243,198 183.8068,198 C184.160425,198 184.51405,198.063528 184.856575,198.179996 C184.97075,198.219323 185.083339,198.2647 185.195928,198.316128 C185.222886,198.328228 185.25143,198.343354 185.278387,198.355455 C185.329132,198.381168 185.379876,198.406882 185.430621,198.434109 C185.462336,198.450747 185.492465,198.467385 185.524181,198.484023 C185.557482,198.503687 185.592368,198.524863 185.624084,198.546039 C185.750945,198.62318 185.874634,198.706372 185.995152,198.797126 C186.147385,198.913594 186.293276,199.04065 186.434408,199.175269 C186.527968,199.267536 186.616771,199.362829 186.705574,199.461146 C186.791205,199.559463 186.876836,199.662318 186.956124,199.769711 C187.036998,199.875591 187.113115,199.987521 187.184474,200.100964 C187.220947,200.156929 187.255833,200.214407 187.29072,200.273398 C187.325607,200.332388 187.358908,200.391378 187.390623,200.450369 C187.428682,200.522972 187.46674,200.597088 187.501627,200.671204 C187.525413,200.719607 187.547614,200.769522 187.569814,200.819437 C187.596772,200.881452 187.62373,200.94498 187.649103,201.010021 C187.666546,201.055398 187.682404,201.100775 187.699847,201.146152 C187.715705,201.190017 187.729976,201.233882 187.744248,201.277746 C187.75852,201.318586 187.772792,201.359425 187.785478,201.400265 C187.845737,201.599924 187.894896,201.802609 187.929783,202.009832 C188.134346,203.185101 187.880624,204.237852 187.316092,204.966912 C187.309749,204.972963 187.303406,204.980526 187.298649,204.988088 C187.274863,205.016827 187.251076,205.045566 187.22729,205.074305 C187.217775,205.084893 187.208261,205.096994 187.198746,205.107582 C187.17496,205.133296 187.151173,205.159009 187.127387,205.184723 C187.119458,205.192286 187.111529,205.201361 187.1036,205.208924 C187.067128,205.248251 187.029069,205.284553 186.989425,205.320855 C186.983082,205.325392 186.978325,205.328417 186.975153,205.332955 C186.943438,205.360182 186.913309,205.387408 186.880008,205.413122" id="Fill-154" fill="#9E8697"></path>
                    <path d="M186.194334,205.010242 C186.186645,205.016323 186.180494,205.022404 186.172805,205.026964 C186.165117,205.033045 186.158966,205.037606 186.151277,205.042167 C186.125136,205.06041 186.098995,205.078653 186.071316,205.096896 C186.059014,205.104497 186.045174,205.113618 186.032872,205.12274 C185.992892,205.148584 185.951373,205.172908 185.909854,205.195711 C185.868336,205.218515 185.826817,205.239798 185.783761,205.261082 C185.769921,205.267163 185.756082,205.273244 185.742242,205.280845 C185.711488,205.294527 185.680733,205.308209 185.649979,205.320371 C185.634602,205.326452 185.619224,205.332533 185.605385,205.337094 C185.573093,205.350776 185.539263,205.362938 185.505433,205.3751 C185.491593,205.378141 185.480829,205.384221 185.46699,205.387262 C185.374726,205.417667 185.279387,205.441991 185.180973,205.460234 C185.17636,205.461754 185.171746,205.463274 185.167133,205.463274 C185.113313,205.473916 185.059492,205.483037 185.005672,205.489118 C184.996446,205.490639 184.987219,205.490639 184.979531,205.492159 C184.944163,205.495199 184.908795,205.49976 184.87189,205.50128 C184.856513,205.5028 184.841136,205.504321 184.824221,205.505841 C184.773476,205.508881 184.721193,205.510402 184.66891,205.510402 C184.152235,205.510402 183.640172,205.369019 183.16194,205.115138 C181.939449,204.470555 180.939927,203.097776 180.673901,201.5 C180.638533,201.291727 180.617005,201.088014 180.609316,200.887342 C180.606241,200.820451 180.606241,200.755081 180.606241,200.68819 C180.606241,200.628901 180.607779,200.569611 180.610854,200.510322 L180.610854,200.495119 C180.61393,200.429749 180.618543,200.365899 180.623156,200.303569 C180.624694,200.292927 180.626231,200.282285 180.626231,200.271643 C180.630845,200.230597 180.635458,200.191071 180.640071,200.151544 C180.643146,200.134822 180.644684,200.118099 180.64776,200.101376 C180.65391,200.049688 180.661599,199.998 180.672363,199.946311 L180.673901,199.931109 C180.684665,199.87638 180.695429,199.821651 180.707731,199.768443 C180.709269,199.763882 180.709269,199.759321 180.710806,199.754761 C180.724646,199.695471 180.738485,199.637702 180.7554,199.581453 C180.756938,199.570811 180.761551,199.56169 180.764627,199.551048 C180.775391,199.514562 180.786155,199.478076 180.796919,199.443111 C180.80307,199.427908 180.807683,199.412706 180.812296,199.399024 C180.827673,199.350376 180.844588,199.303249 180.864579,199.254601 L180.866117,199.24852 C180.907635,199.140582 180.955305,199.037206 181.00605,198.93839 C181.010663,198.929269 181.015276,198.921667 181.019889,198.914066 C181.029115,198.897344 181.038342,198.880621 181.047568,198.863898 C181.053719,198.850216 181.061408,198.836534 181.069096,198.824372 C181.078323,198.807649 181.087549,198.792447 181.096775,198.775724 C181.116766,198.739238 181.139832,198.705793 181.16136,198.670827 C181.165973,198.664746 181.169048,198.657145 181.173662,198.651064 C181.26285,198.515763 181.362802,198.388062 181.47198,198.271003 C181.476593,198.266443 181.481207,198.263402 181.484282,198.258841 C181.510423,198.231477 181.536565,198.204113 181.562706,198.179789 L181.58731,198.155465 C181.621139,198.12354 181.656507,198.091615 181.691875,198.06121 C181.704177,198.052088 181.714941,198.042967 181.725705,198.033845 C181.751846,198.012562 181.777987,197.992799 181.804129,197.973036 L181.848723,197.93959 C181.873326,197.921347 181.89793,197.904625 181.922534,197.887902 C181.937911,197.878781 181.953288,197.868139 181.967128,197.859017 C181.99942,197.837734 182.03325,197.817971 182.06708,197.798208 C182.073231,197.795167 182.079382,197.790606 182.08707,197.787566 C182.449973,197.582333 182.868234,197.469835 183.326476,197.469835 C183.670927,197.469835 184.01384,197.533685 184.34445,197.650744 C184.456704,197.69027 184.565883,197.735878 184.673524,197.787566 C184.781164,197.837734 184.887267,197.893983 184.99337,197.956313 C185.119464,198.032325 185.244019,198.115939 185.3655,198.207153 C185.393179,198.228437 185.422396,198.24972 185.450075,198.271003 C185.597696,198.388062 185.739167,198.515763 185.874487,198.651064 C185.96675,198.742279 186.052863,198.838054 186.137438,198.93839 C186.222013,199.037206 186.303512,199.140582 186.381936,199.24852 C186.408077,199.285006 186.434219,199.323012 186.46036,199.361018 C186.492652,199.409666 186.524944,199.459834 186.557237,199.508481 C186.572614,199.532805 186.587991,199.557129 186.603368,199.581453 C186.638736,199.637702 186.672566,199.695471 186.706396,199.754761 C186.709471,199.762362 186.714085,199.769963 186.718698,199.777564 C186.798659,199.920467 186.870933,200.069451 186.938592,200.221475 C186.952432,200.24884 186.964734,200.274684 186.977036,200.303569 C187.003177,200.365899 187.029318,200.429749 187.053922,200.495119 C187.066224,200.528565 187.076988,200.56201 187.089289,200.596976 C187.112355,200.660826 187.135421,200.727716 187.155412,200.793087 C187.164638,200.825012 187.17694,200.856937 187.186166,200.887342 C187.2446,201.088014 187.290731,201.291727 187.326099,201.5 C187.522928,202.681229 187.27843,203.739318 186.731,204.472076 C186.724849,204.479677 186.718698,204.487278 186.712547,204.494879 C186.691019,204.522244 186.669491,204.549608 186.646425,204.576972 C186.637198,204.590655 186.624897,204.602816 186.614132,204.616499 C186.592604,204.640823 186.571076,204.665146 186.54801,204.68947 C186.540322,204.698592 186.532633,204.707713 186.524944,204.715314 C186.488039,204.754841 186.451134,204.791327 186.414228,204.827812 C186.408077,204.832373 186.401926,204.836934 186.397313,204.841495 C186.368096,204.867339 186.33888,204.893183 186.309663,204.919027 C186.294286,204.931189 186.280446,204.943351 186.265069,204.953993 C186.242003,204.973756 186.218937,204.991999 186.194334,205.010242 M191.839322,201.5 C190.962819,196.24908 186.747915,192 182.414606,192 C178.081297,192 175.284175,196.24908 176.160678,201.5 C177.035644,206.75244 181.252085,211 185.585394,211 C189.918703,211 192.715825,206.75244 191.839322,201.5" id="Fill-156" fill="#ECE6EA"></path>
                    <path d="M185.573239,210.767494 C181.270656,210.767494 177.085638,206.627046 176.21535,201.51037 C175.345062,196.393694 178.12235,192.253245 182.424933,192.253245 C186.727517,192.253245 190.914061,196.393694 191.782823,201.51037 C192.653111,206.627046 189.875823,210.767494 185.573239,210.767494 M188.213114,211.570401 C188.286401,211.543736 188.358162,211.514108 188.429923,211.485962 C191.730911,210.118651 193.611955,206.170782 192.819535,201.51037 C191.833208,195.713742 187.08632,191 182.212705,191 C181.224852,191 180.308759,191.19406 179.484275,191.549591 C179.479695,191.551072 179.476641,191.552554 179.473587,191.554035 C179.47206,191.555516 179.470534,191.555516 179.469007,191.556998 C179.401827,191.586625 179.336173,191.616253 179.268993,191.647362 C179.244564,191.659213 179.221662,191.671064 179.198759,191.682915 L179.064399,191.749577 C179.036916,191.764391 179.009433,191.779204 178.983478,191.792537 C178.942253,191.814757 178.902556,191.836978 178.861332,191.859199 C178.833849,191.875494 178.807893,191.890308 178.78041,191.906603 C178.739186,191.930305 178.697962,191.955488 178.656738,191.980672 L178.584977,192.025113 C178.530012,192.060666 178.475046,192.096219 178.42008,192.133253 C178.412446,192.137698 178.404812,192.143623 178.397178,192.148067 C178.333052,192.191027 178.270452,192.235468 178.209379,192.281391 C178.191057,192.294723 178.172735,192.308056 178.15594,192.321388 C178.113189,192.352497 178.070438,192.385087 178.029214,192.417678 C178.004785,192.436936 177.981883,192.454712 177.95898,192.47397 C177.922337,192.503598 177.884166,192.534707 177.847522,192.564334 C177.826147,192.585073 177.803244,192.604331 177.780342,192.623589 L177.671938,192.718397 C177.650562,192.739137 177.629187,192.756913 177.607811,192.776171 C177.566587,192.816168 177.525363,192.856165 177.484139,192.896163 C177.468871,192.909495 177.455129,192.922827 177.441388,192.93616 C177.386422,192.990971 177.332983,193.045782 177.279545,193.102074 C177.268857,193.113925 177.258169,193.125776 177.245955,193.137627 C177.20473,193.182068 177.163506,193.22651 177.122282,193.272432 C177.105487,193.293172 177.087165,193.313911 177.07037,193.333169 C177.03678,193.371685 177.00319,193.4102 176.971127,193.450198 C176.952805,193.472418 176.932956,193.49612 176.914634,193.518341 C176.882571,193.558338 176.852035,193.596854 176.821498,193.636851 C176.803176,193.659072 176.786381,193.681292 176.768059,193.704994 C176.732943,193.752398 176.697826,193.798321 176.662709,193.847207 C176.652021,193.86202 176.639806,193.878315 176.629119,193.893129 C176.581787,193.95831 176.537509,194.024972 176.491705,194.093115 C176.485597,194.100522 176.481017,194.10941 176.476436,194.116817 C176.438266,194.174591 176.401622,194.230883 176.364978,194.288657 C176.34971,194.31384 176.335969,194.337542 176.320701,194.362726 C176.293218,194.408648 176.265735,194.454571 176.238252,194.500494 C176.224511,194.524196 176.21077,194.547898 176.197028,194.5716 C176.171072,194.619004 176.143589,194.666408 176.117633,194.715293 C176.103892,194.740477 176.091677,194.76566 176.077936,194.789362 C176.050453,194.842692 176.02297,194.89454 175.997014,194.94787 C175.986327,194.967128 175.975639,194.987867 175.966478,195.007125 C175.931361,195.081194 175.894717,195.153781 175.861127,195.229331 C175.85502,195.242664 175.85044,195.254515 175.844332,195.267847 C175.815323,195.331546 175.78784,195.395245 175.760357,195.458945 C175.751196,195.481165 175.742035,195.503386 175.732874,195.525607 C175.709972,195.581899 175.68707,195.63671 175.665694,195.693002 C175.655006,195.721148 175.644319,195.749295 175.633631,195.777441 C175.615309,195.826326 175.596987,195.87373 175.580192,195.922616 C175.567978,195.955206 175.55729,195.987796 175.545075,196.020387 C175.526753,196.073716 175.509958,196.125564 175.493163,196.177413 C175.484002,196.205559 175.474842,196.232223 175.465681,196.261851 C175.415295,196.423321 175.367964,196.587754 175.325213,196.75515 L175.305364,196.835144 C175.291623,196.892918 175.276355,196.952173 175.262613,197.011428 C175.256506,197.039574 175.250399,197.06772 175.244291,197.097348 C175.232077,197.155121 175.218335,197.214376 175.206121,197.273631 L175.189326,197.366958 C175.177111,197.426213 175.166424,197.485468 175.157263,197.546205 C175.151155,197.57287 175.146575,197.599534 175.141994,197.627681 C175.128253,197.712119 175.116038,197.796558 175.103824,197.882477 C175.103824,197.88544 175.102297,197.889884 175.102297,197.894328 C175.088556,197.986174 175.077868,198.078019 175.06718,198.169865 C175.064127,198.196529 175.0626,198.224676 175.059546,198.25134 C175.053439,198.306151 175.047331,198.360962 175.042751,198.417255 C175.041224,198.449845 175.038171,198.482435 175.035117,198.515025 C175.030536,198.568355 175.027483,198.623166 175.022902,198.676495 C175.021376,198.706123 175.019849,198.735751 175.018322,198.766859 C175.015268,198.823152 175.012215,198.877963 175.010688,198.934255 C175.009161,198.968327 175.007634,199.002398 175.006107,199.03647 L175.001527,199.186089 C175.001527,199.227568 175.001527,199.267565 175,199.309043 C175,199.356448 175,199.403852 175,199.449774 C175,199.494216 175.001527,199.538657 175.001527,199.58458 C175.001527,199.62754 175.003054,199.671981 175.00458,199.716422 C175.00458,199.760863 175.006107,199.805305 175.007634,199.851227 C175.010688,199.898631 175.012215,199.946036 175.013741,199.99344 C175.015268,200.034918 175.018322,200.076397 175.019849,200.117875 C175.022902,200.169723 175.027483,200.221572 175.030536,200.274901 C175.03359,200.313417 175.036644,200.354896 175.039697,200.394893 C175.044278,200.44526 175.048858,200.495626 175.053439,200.547475 L175.065653,200.670429 C175.071761,200.72524 175.077868,200.778569 175.083975,200.83338 C175.088556,200.871896 175.091609,200.910412 175.097717,200.948928 C175.105351,201.008183 175.112985,201.067438 175.122146,201.128174 L175.135887,201.230389 C175.149629,201.323716 175.164897,201.417043 175.180165,201.51037 C175.203067,201.645175 175.229023,201.77998 175.256506,201.913304 C175.261086,201.938488 175.265667,201.963671 175.270247,201.988854 C175.29773,202.119216 175.32674,202.248095 175.357276,202.375494 C175.363384,202.400677 175.369491,202.424379 175.375598,202.448081 C175.439725,202.713248 175.511485,202.97397 175.59088,203.23173 C175.600041,203.258394 175.607675,203.285059 175.616836,203.311724 C175.651953,203.427271 175.690123,203.542819 175.729821,203.656885 C175.737455,203.676143 175.743562,203.696882 175.751196,203.71614 C175.786313,203.818355 175.822957,203.919089 175.861127,204.021304 C175.870288,204.043524 175.877922,204.067226 175.887083,204.089447 C175.931361,204.203513 175.975639,204.317579 176.02297,204.430164 C176.030605,204.450903 176.039766,204.471642 176.048926,204.492381 C176.091677,204.593115 176.134428,204.692367 176.178706,204.793101 C176.187867,204.812359 176.195501,204.833098 176.204662,204.852356 C176.242833,204.936795 176.28253,205.019752 176.320701,205.10419 C176.323754,205.107153 176.325281,205.111597 176.326808,205.116041 C176.369559,205.204924 176.41231,205.292325 176.456588,205.379726 L176.490178,205.444907 C176.523768,205.511569 176.557358,205.576749 176.592475,205.64193 C176.606216,205.668595 176.621485,205.69526 176.635226,205.721924 C176.667289,205.781179 176.699352,205.838953 176.731416,205.896727 C176.748211,205.926354 176.765006,205.955982 176.781801,205.985609 C176.812337,206.04042 176.842874,206.095231 176.874937,206.148561 C176.893259,206.17967 176.911581,206.21226 176.929902,206.243369 C176.963493,206.299661 176.998609,206.355954 177.033726,206.412246 C177.048995,206.437429 177.064263,206.461131 177.079531,206.486315 C177.129916,206.567791 177.180301,206.647785 177.23374,206.727779 C177.287179,206.810736 177.340617,206.890731 177.395583,206.970725 C177.409324,206.991464 177.423066,207.010722 177.436807,207.02998 C177.476505,207.087754 177.516202,207.145528 177.557426,207.20182 C177.577275,207.231448 177.59865,207.259594 177.620026,207.289221 C177.655143,207.338107 177.69026,207.385511 177.725377,207.432915 C177.748279,207.462542 177.769654,207.49217 177.79103,207.520316 C177.827674,207.56772 177.86279,207.615124 177.899434,207.661047 C177.922337,207.690674 177.945239,207.720302 177.969668,207.748448 C178.006312,207.797334 178.044482,207.844738 178.082653,207.892142 C178.104028,207.915844 178.123877,207.942508 178.145252,207.96621 C178.197164,208.02991 178.250603,208.093609 178.304042,208.155827 C178.311676,208.164715 178.31931,208.173603 178.325417,208.18101 C178.38649,208.252116 178.447563,208.321741 178.510163,208.389884 C178.528485,208.410624 178.546807,208.431363 178.566655,208.452102 C178.610933,208.500988 178.656738,208.549873 178.702542,208.598758 C178.723918,208.62246 178.745293,208.644681 178.766669,208.666902 C178.80942,208.711343 178.852171,208.754303 178.893395,208.797263 C178.917824,208.822446 178.942253,208.84763 178.966682,208.871332 C179.01096,208.915773 179.055238,208.960214 179.101043,209.003174 C179.126999,209.028358 179.151428,209.053541 179.178911,209.078725 C179.229296,209.12761 179.281208,209.176495 179.33312,209.2239 L179.385032,209.271304 C179.452212,209.333521 179.522446,209.395739 179.591153,209.456476 C179.614055,209.475734 179.636957,209.496473 179.659859,209.515731 C179.708718,209.557209 179.756049,209.597207 179.804908,209.638685 C179.833917,209.662387 179.864454,209.687571 179.893463,209.711273 C179.939268,209.748307 179.983546,209.78386 180.02935,209.820894 C180.055306,209.841634 180.081262,209.862373 180.108745,209.883112 C180.163711,209.926072 180.217149,209.966069 180.270588,210.007548 C180.29349,210.023843 180.313339,210.040138 180.334715,210.054952 C180.408002,210.109763 180.48129,210.163093 180.554577,210.213459 C180.575952,210.229755 180.597328,210.243087 180.617177,210.257901 C180.673669,210.296416 180.727108,210.334932 180.782073,210.370485 C180.811083,210.391225 180.841619,210.409001 180.870629,210.428259 C180.91796,210.459368 180.963765,210.490477 181.011097,210.520104 C181.04316,210.540844 181.075223,210.560102 181.107286,210.580841 C181.159198,210.613431 181.21111,210.64454 181.263022,210.675649 C181.287451,210.688981 181.31188,210.705277 181.337836,210.718609 C181.495099,210.810454 181.653888,210.899337 181.815732,210.982294 C181.838634,210.994145 181.863063,211.007477 181.887492,211.017847 C181.943985,211.047475 182.000477,211.075621 182.056969,211.103767 C182.084452,211.117099 182.113462,211.130432 182.140945,211.142283 C182.198964,211.170429 182.256983,211.197094 182.315002,211.223758 C182.337905,211.234128 182.360807,211.244498 182.385236,211.254867 C182.456997,211.285976 182.530284,211.317085 182.603572,211.346713 C182.614259,211.351157 182.62342,211.355601 182.634108,211.360045 C182.716556,211.392635 182.797478,211.425226 182.879926,211.456335 C182.910463,211.468186 182.942526,211.478555 182.974589,211.490406 C183.018867,211.506701 183.064672,211.522997 183.108949,211.539292 C183.136432,211.54818 183.163915,211.555587 183.189871,211.565957 C183.238729,211.58077 183.286061,211.597065 183.334919,211.611879 C183.366982,211.622249 183.400572,211.631137 183.432636,211.641507 C183.47386,211.654839 183.515084,211.66669 183.556308,211.678541 C183.594479,211.690392 183.632649,211.69928 183.67082,211.711131 C183.707464,211.721501 183.745634,211.730389 183.782278,211.740759 C183.821975,211.751129 183.860146,211.760017 183.899843,211.768905 C183.93954,211.779275 183.977711,211.788163 184.017408,211.797051 C184.054052,211.80594 184.090696,211.813347 184.127339,211.820753 C184.171617,211.831123 184.215895,211.840011 184.260173,211.847418 C184.293763,211.854825 184.325826,211.860751 184.359416,211.866676 C184.403694,211.875564 184.447972,211.882971 184.49225,211.890378 C184.527367,211.896304 184.56401,211.902229 184.599127,211.908155 C184.643405,211.91408 184.686156,211.920006 184.730434,211.925931 C184.764024,211.931857 184.799141,211.936301 184.832731,211.940745 C184.878536,211.945189 184.922813,211.949633 184.968618,211.955559 C185.002208,211.958521 185.037325,211.962966 185.072442,211.965928 C185.118247,211.970372 185.164051,211.973335 185.211383,211.976298 C185.243446,211.979261 185.275509,211.982223 185.307573,211.983705 C185.364065,211.988149 185.420557,211.98963 185.478577,211.992593 C185.499952,211.994074 185.521328,211.995556 185.54423,211.995556 C185.623625,211.998519 185.703019,212 185.782414,212 C185.861809,212 185.939677,211.998519 186.017545,211.995556 C186.03892,211.995556 186.060296,211.994074 186.081671,211.992593 C186.138163,211.98963 186.194656,211.988149 186.251148,211.985186 C186.281685,211.982223 186.312221,211.979261 186.344284,211.977779 C186.387035,211.973335 186.429786,211.970372 186.472537,211.96741 C186.512235,211.962966 186.553459,211.958521 186.591629,211.954077 C186.628273,211.949633 186.66339,211.94667 186.698507,211.942226 C186.727517,211.939264 186.756526,211.934819 186.784009,211.930375 C186.840501,211.922968 186.89394,211.91408 186.948906,211.905192 C186.977915,211.900748 187.006925,211.896304 187.035935,211.890378 C187.087847,211.88149 187.138232,211.872602 187.190144,211.862232 C187.217626,211.856306 187.243582,211.850381 187.271065,211.844455 C187.362674,211.825198 187.454284,211.804458 187.544366,211.782238 C187.564215,211.776312 187.584064,211.770387 187.603912,211.764461 C187.680253,211.745203 187.755068,211.722983 187.829882,211.700762 C187.852784,211.693355 187.87416,211.687429 187.895535,211.680023 C187.984091,211.651876 188.07112,211.62373 188.158148,211.59114 C188.17647,211.585214 188.194792,211.577808 188.213114,211.570401" id="Fill-158" fill="#C5B6C1"></path>
                    <path d="M89.5782955,254 C89.6186109,254 89.6574331,254 89.6992417,253.998515 L95.6793601,253.711821 C98.9464011,253.555848 102.035756,252.046624 104.159034,249.571853 C106.280818,247.095597 107.28721,243.82165 106.928851,240.589296 C104.417351,217.88706 97.3128806,180.08367 77.2163978,182.075667 C75.8650852,182.209358 74.8766112,183.409607 75.012489,184.755431 C75.1453805,186.102741 76.3264726,187.100968 77.7061553,186.950937 C94.5550083,185.282769 100.582908,227.995593 102.034262,241.125546 C102.244798,243.02396 101.653506,244.94317 100.411194,246.394461 C99.1703756,247.842782 97.3576755,248.728114 95.4449335,248.818727 L89.4633219,249.103934 C88.1045435,249.17078 87.0563429,250.317553 87.120549,251.667833 C87.1862481,252.979491 88.2717777,254 89.5782955,254" id="Fill-160" fill="#5A3C55"></path>
                    <path d="M89.3384249,254 C89.3767394,254 89.4136349,254 89.4533684,253.998567 L95.1366846,253.721921 C96.4280248,253.658852 96.2023951,248.955878 94.9138929,249.000313 L89.2291577,249.275525 C87.9378174,249.340028 86.9416407,250.44661 87.0026601,251.749567 C87.0650985,253.015257 88.0981707,254 89.3384249,254" id="Fill-162" fill="#C5B6C1"></path>
                    <path d="M73.7879809,256 C74.5394358,256 75.2939086,255.931836 76.0393277,255.789581 L81.9800464,254.670802 C83.3290437,254.415927 84.2132858,253.135629 83.9552561,251.810877 C83.6957175,250.486124 82.378408,249.617773 81.0429912,249.872647 L75.1022725,250.992908 C73.204019,251.350029 71.207684,250.918817 69.6353627,249.80152 C68.073604,248.688668 67.0339406,246.965304 66.7849645,245.073012 C65.0708024,232.004784 60.7974685,189.18148 77.7172752,186.863904 C79.0768351,186.678675 80.0274708,185.444314 79.8373437,184.107706 C79.6472165,182.771099 78.3947917,181.830139 77.0307049,182.02574 C56.9224963,184.777492 58.8871434,223.100488 61.8492036,245.698342 C62.2747262,248.919833 64.0477373,251.856813 66.717062,253.757997 C68.7812995,255.225005 71.2710597,256 73.7879809,256" id="Fill-164" fill="#5A3C55"></path>
                    <path d="M77.1447349,186 C77.3110596,186 77.4773843,185.983766 77.6467058,185.949823 C78.9832971,185.678274 79.8418922,184.389894 79.5676812,183.073474 C78.4588499,177.804842 79.0192592,165.275238 79.8344001,156.142942 C80.4877115,148.817035 83.2223293,148.845075 84.5004821,148.865737 L84.5304506,148.865737 C85.8805276,148.865737 86.9863621,147.794301 86.9998479,146.460171 C87.0148321,145.11571 85.920985,144.014758 84.5589205,144 C78.8574298,144.048702 75.6103521,147.87547 74.9135865,155.71791 C74.4835397,160.527566 73.2008916,176.786535 74.7277823,184.059313 C74.969028,185.208967 75.9969446,186 77.1447349,186" id="Fill-166" fill="#5A3C55"></path>
                    <path d="M75.2652735,256 C75.4262851,256 75.5904232,255.985202 75.752998,255.955607 L81.9073926,254.836895 C83.3049107,254.583853 84.2209573,253.305325 83.9536468,251.982403 C83.6863363,250.658002 82.3310251,249.783453 80.9350702,250.046854 L74.7822387,251.164086 C73.3847206,251.418608 74.0553417,256 75.2652735,256" id="Fill-168" fill="#C5B6C1"></path>
                    <path d="M139.166144,143.286577 C142.563777,145.216095 146.931739,148.629284 149.199292,150.561784 C153.978461,154.544583 158.392277,159.019454 162.659656,164.403912 C165.758498,168.288297 169.074777,172.05041 171.463622,174.680757 C172.025703,175.295101 172.537493,175.83638 172.976804,176.303103 C173.244532,176.598346 173.463447,176.842891 173.683842,177.065069 C173.726738,177.108311 173.763717,177.153045 173.797738,177.202252 C173.973758,177.452762 173.98707,177.785283 173.830279,178.047721 C173.788863,178.116313 173.74153,178.19236 173.689759,178.272881 C173.062595,179.248078 172.246098,180.063724 171.274289,180.689998 L165.928602,184.144938 C165.928602,184.144938 174.586131,193.659817 178.073992,196.658473 C179.023613,197.494995 178.999947,198.280819 178.999947,198.650618 L178.999947,198.699825 C178.414199,213.032534 170.854208,226.577929 164.709773,232.306837 C158.952879,237.616739 157.075824,247.230033 156.759284,249 C157.319886,242.436061 158.587527,237.862775 160.050417,233.364046 C161.636077,228.422452 163.538278,223.555415 165.026314,216.228019 C168.358863,200.001579 154.067211,168.09296 147.638778,158.011453 C144.100625,152.372012 141.581614,148.150632 136.802445,146.028759 C136.454842,145.875173 136.187114,145.578439 136.067302,145.214604 C135.948969,144.849278 135.987428,144.451147 136.17676,144.117134 C136.777299,143.058435 138.111503,142.687144 139.166144,143.286577" id="Fill-170" fill="#FAF9FA"></path>
                    <path d="M76.0099631,173.408074 C76.5708486,168.582468 79.0112183,161.369441 80.8892227,156.175046 C82.7627873,150.919435 87.0708021,145.981849 89.3528216,143.603386 C89.7301983,143.210709 90.2511263,142.99272 90.791293,143.000186 C91.3329397,143.009144 91.846468,143.243556 92.2120055,143.646685 C92.6204604,144.099086 92.7373732,144.747079 92.512427,145.315939 C92.2874809,145.886292 92.2608425,146.59998 92.2105256,147.36294 C92.1631685,148.914241 92.1128516,150.538702 92.1380101,150.587974 C92.1039722,151.789896 92.1957265,153.503942 92.2845211,154.575967 L92.2845211,154.599856 C92.8942435,162.181672 95.8466617,175.377435 107.41215,192.461156 C126.103399,220.156135 132.372293,226.777905 131.983077,245.460706 C131.957918,246.741761 131.885403,248.587197 131.812887,251 C131.738892,245.068028 125.27317,231.872264 119.661355,224.635348 C114.780616,218.309205 90.8445697,202.406504 85.0862443,198.639485 C84.3803277,198.197536 84.1834998,197.289749 84.5963944,196.625332 C84.5978743,196.622346 84.5993542,196.620853 84.5993542,196.61936 L93.4566089,182.614352 C93.4566089,182.614352 81.1097291,176.877972 76.9127075,174.933993 C76.2778266,174.663747 75.9359676,174.02322 76.0099631,173.408074" id="Fill-172" fill="#FAF9FA"></path>
                    <path d="M68,57.0744723 C68,28.8680963 93.3467087,6 124.609395,6 C129.262898,6 133.910418,6.53337975 138.41733,7.58370457 C152.135516,10.7795009 164.326468,18.7279049 172.115215,29.4866376 C176.094102,34.9847817 178.5652,40.9505669 180.186672,47.3331952 C182.223982,55.3667607 181.718394,63.4302075 181.718394,71.7312099 C181.718394,79.3404621 182.428909,87.2739256 181.592745,94.8547906 C180.138805,108.090676 172.695594,121.050161 160.793336,128.87157 C147.350381,137.702964 129.864218,133.673481 116.113124,127.670345 C102.643244,121.791215 90.1980028,111.772042 82.0427797,100.588996 C72.9810882,88.1599037 68.2797188,73.3119263 68.0119666,58.4744074 C68.0044875,58.0082604 68,57.5406193 68,57.0744723" id="Fill-174" fill="#FFA898"></path>
                    <path d="M84.1812581,64.2100357 C87.8155414,63.292414 91.1951934,65.4231375 91.8057299,69.7870374 C92.5609432,75.1932842 89.2492894,75.576369 89.9003353,80.4243217 C90.3025371,83.4266373 91.4888875,84.5061049 91.8997699,87.4653606 C92.2759298,90.1350754 91.6379047,93.2932976 89.2246943,93.9035606 C85.264888,94.9028476 80.1650278,87.961292 78.6632818,81.1934609 C77.1253665,74.2578446 77.9876407,65.7765258 84.1812581,64.2100357" id="Fill-176" fill="#F48989"></path>
                    <path d="M132.423435,102.972554 C132.454655,103.014589 135.894891,107.21957 144.996498,107.21957 C154.01039,107.21957 157.416431,103.168236 157.593349,102.949362 C158.403603,101.905727 159.923016,101.688303 161.005337,102.46813 C162.095092,103.252306 162.324044,104.748184 161.519737,105.810662 C161.327952,106.064324 156.698353,112 144.996498,112 C133.299104,112 128.670991,106.064324 128.479206,105.810662 C127.674899,104.748184 127.906825,103.252306 128.99658,102.46813 C130.087821,101.683954 131.619127,101.910075 132.423435,102.972554" id="Fill-178" fill="#D63E39"></path>
                    <path d="M125.402383,88.0480286 C128.108183,87.6700088 130.591307,89.5659011 130.956085,92.2395583 C131.316468,94.9117671 129.419331,97.3696198 126.714997,97.7259143 C126.506971,97.753433 124.855949,98.1966286 124.461873,99.0815714 C123.647349,100.91084 121.838111,102 119.938045,102 C119.274413,102 118.599062,101.8682 117.954475,101.58722 C115.455236,100.503853 114.32135,97.6230813 115.418612,95.1536418 C118.071673,89.1820879 124.659643,88.1465165 125.402383,88.0480286" id="Fill-180" fill="#F8918C"></path>
                    <path d="M160.044176,92.2388832 C160.407349,89.566886 162.885124,87.6711439 165.594275,88.0476855 C166.336729,88.1461656 172.926556,89.181655 175.581524,95.1512876 C176.678364,97.6205316 175.544913,100.501075 173.048101,101.587252 C172.400834,101.866762 171.727207,102 171.063831,102 C169.165961,102 167.355955,100.910926 166.541745,99.0832508 C166.193217,98.2968582 164.809353,97.81894 164.220662,97.7190117 C161.55105,97.3294359 159.685397,94.890605 160.044176,92.2388832" id="Fill-182" fill="#F8918C"></path>
                    <path d="M113.340873,66.5130335 C118.230549,60.4922577 127.355412,62.2069632 127.741093,62.2813291 C128.589883,62.4486523 129.137726,63.255236 128.969721,64.0861317 C128.800255,64.912737 127.995292,65.4332981 127.124587,65.2888567 C127.051542,65.2688351 119.504465,63.8515932 115.792285,68.4193741 C115.484032,68.8026444 115.028227,69 114.566579,69 C114.224725,69 113.87995,68.8898813 113.59215,68.6653536 C112.914286,68.139072 112.801796,67.1766059 113.340873,66.5130335" id="Fill-184" fill="#893327"></path>
                    <path d="M163.868051,65.2879918 C163.017593,65.4439104 162.196361,64.9103539 162.031237,64.0806951 C161.860269,63.2524666 162.408244,62.4485558 163.25578,62.2797631 C163.640094,62.2082408 172.770097,60.4917052 177.6595,66.5124538 C178.198708,67.1761809 178.08473,68.1388713 177.408162,68.666706 C177.118831,68.8898556 176.775433,69 176.434958,69 C175.973197,69 175.51582,68.801168 175.208954,68.4206692 C171.519252,63.8790021 163.945499,65.2722569 163.868051,65.2879918" id="Fill-186" fill="#893327"></path>
                    <path d="M171,76.4596898 L171,80.546458 C171,82.4538214 169.435816,84 167.507132,84 L167.499208,84 C165.567353,84 164,82.4507475 164,80.5387732 L164,76.4596898 C164,74.5492525 165.567353,73 167.499208,73 C169.434231,73 171,74.5492525 171,76.4596898" id="Fill-188" fill="#532442"></path>
                    <path d="M123.508716,84 L123.500792,84 C121.567353,84 120,82.4507475 120,80.5403102 L120,76.4596898 C120,74.5492525 121.567353,73 123.500792,73 C125.432647,73 127,74.5492525 127,76.4596898 L127,80.546458 C127,82.4553584 125.437401,84 123.508716,84" id="Fill-190" fill="#532442"></path>
                    <path d="M67.9398753,90.1105181 C68.6541505,91.9342812 69.440152,93.6832999 70.3785722,95.3844822 C73.5808561,101.422334 77.9920284,106.475055 83.4611647,110 C83.4611647,110 83.6584123,107.090948 83.9781924,103.443422 C84.2501549,100.362459 84.6177526,96.7896767 84.9883389,93.9553695 C85.308119,91.6876247 85.6278991,89.913193 85.9476792,89.2479679 C90.2348246,87.3987917 131.183115,60.287507 128.990978,27.4328635 C129.457199,27.8529269 159.341696,65.0188268 181.984817,68.7156843 C184.89123,70.5648605 186,61.5207894 186,61.5207894 C186,61.5207894 179.003689,23.5386808 156.557816,13.8772211 C139.607976,6.58216877 120.637843,-7.04821797 90.8519703,15.1105035 C64.7854089,34.5066724 58.9710894,67.3119847 67.9398753,90.1105181" id="Fill-192" fill="#9F462C"></path>
                    <path d="M60.082251,127.362186 C67.0065743,133.89769 86.724153,139.623894 100.03464,135.690668 L100.354546,129.745372 L100.89719,119.400348 C94.3151965,114.705517 88.425336,109.177539 83.7194272,103.230753 C84.2127404,97.726622 84.9751335,90.5517273 85.6896901,89.0776993 C89.9785251,87.2340465 130.941459,60.2037409 128.749952,27.4472315 C129.216357,27.8645499 159.112631,64.9209287 181.763181,68.6067439 C181.739263,69.8363426 181.739263,71.0644509 181.739263,72.316406 C181.739263,79.9115999 182.428407,87.8227634 181.591269,95.3911297 C180.136743,108.587332 172.719106,121.512277 160.813814,129.302717 C151.967065,135.101951 141.365316,135.347871 131.237446,133.110747 L131.089452,135.789036 C131.089452,135.789036 154.629461,142.154631 171.807224,133.283636 C180.507475,128.810877 187.579792,120.407874 189.107568,105.269651 C193.495066,62.2441296 182.008343,23.9581521 147.899473,6.73035642 C134.80126,0.132255267 109.210265,-3.70409268 101.412927,5.28315601 C100.699865,6.1043789 99.6340096,6.53213021 98.5487206,6.42780062 C94.6261333,6.05221411 85.2143156,6.64540233 78.4693789,19.1649527 C77.2839324,21.327556 75.3644956,24.6452369 72.9711792,28.7737077 L72.947261,28.7975545 C58.4797305,53.9856976 28.1633927,109.840777 60.082251,127.362186" id="Fill-194" fill="#9F462C"></path>
                    <path d="M99.4751282,130 L100,119.465599 C93.6174423,114.686341 87.9047487,109.055649 83.3389436,103 C83.3389436,103 79.250163,129.600843 99.4751282,130" id="Fill-196" fill="#893327"></path>
                    <path d="M140,24.0006911 C140,24.0006911 167.289453,23.5441741 182.082701,46.0970088 C184.946198,53.5042209 186.868577,61.5410086 188,70 C181.832926,67.9053926 165.129193,59.2703587 140,24.0006911" id="Fill-198" fill="#B55C32"></path>
                    <path d="M183,68 C183,68 150.397219,29.7316809 140,24 C143.261465,30.1414059 167.896063,63.6882026 183,68" id="Fill-200" fill="#893327"></path>
                    <path d="M131,134.80186 C131,134.80186 154.515179,141.131408 171.674823,132.309164 C173.077042,131.577065 174.334411,130.600438 175.466341,129.35409 C171.158137,129.451901 169.705145,125.44462 169.705145,125.44462 C181.424655,123.832222 184.747273,102.989615 184.747273,102.989615 C186.890175,86.2521009 185.6343,68.9277213 185.6343,68.9277213 L181.621772,68 C181.597879,69.2226359 181.597879,70.4437897 181.597879,71.6886553 C181.597879,79.239358 182.284802,87.107205 181.448548,94.632714 C179.997049,107.75419 172.585743,120.605946 160.694502,128.35227 C151.855591,134.118665 141.266518,134.363193 131.149331,132.138736 L131,134.80186 Z" id="Fill-202" fill="#893327"></path>
                    <path d="M64,94.0008233 C64.8705324,94.8143022 67.3782077,95.0610375 70.4326015,94.9877646 C75.4238545,94.9129963 81.8790477,94.0501704 85.1578521,93.5581951 C85.4801599,91.2897255 85.8039738,89.5147266 86.1247755,88.8492889 C86.1247755,88.8492889 80.5145108,90.1547431 71.8227423,90.0321231 C79.2478712,81.4038637 89.3041766,63.2815283 90,62 C89.1053699,63.2082554 76.6136824,79.8995259 67.9746278,89.7121149 C66.5106876,91.3869243 65.1687424,92.8434104 64,94.0008233" id="Fill-204" fill="#893327"></path>
                    <path d="M91.1546132,245 C89.4146446,245 88,242.978038 88,240.490043 L88,217.509957 C88,215.021962 89.4146446,213 91.1546132,213 L115.845387,213 C117.585355,213 119,215.021962 119,217.509957 L119,240.490043 C119,242.978038 117.585355,245 115.845387,245 L91.1546132,245 Z" id="Fill-206" fill="#D9D0D8"></path>
                    <path d="M118,217.405323 C118,216.077212 117.254333,215 116.335119,215 L91.6648808,215 C90.7456666,215 90,216.077212 90,217.405323 L90,240.594677 C90,241.922788 90.7456666,243 91.6648808,243 L116.335119,243 C117.254333,243 118,241.922788 118,240.594677 L118,217.405323 Z" id="Fill-208" fill="#F0ECEF"></path>
                    <path d="M92,231.378556 C92,231.721371 92.1869806,232 92.4168975,232 L97.5831025,232 C97.8130194,232 98,231.721371 98,231.378556 L98,222.621444 C98,222.278629 97.8130194,222 97.5831025,222 L92.4168975,222 C92.1869806,222 92,222.278629 92,222.621444 L92,231.378556 Z" id="Fill-210" fill="#B3A0AE"></path>
                    <path d="M102,229.425 C102,229.661 102.204288,229.852 102.456999,229.852 L107.543001,229.852 C107.795712,229.852 108,229.661 108,229.425 C108,229.191 107.795712,229 107.543001,229 L102.456999,229 C102.204288,229 102,229.191 102,229.425" id="Fill-212" fill="#CABAC4"></path>
                    <path d="M102,223.451737 C102,223.754183 102.205394,224 102.457953,224 L112.542047,224 C112.796127,224 113,223.754183 113,223.451737 L113,222.548263 C113,222.245817 112.796127,222 112.542047,222 L102.457953,222 C102.205394,222 102,222.245817 102,222.548263 L102,223.451737 Z" id="Fill-214" fill="#CABAC4"></path>
                    <path d="M116,229.425 C116,229.19 115.795661,229 115.5444,229 L110.4556,229 C110.202825,229 110,229.191 110,229.425 C110,229.661 110.202825,229.852 110.4556,229.852 L115.542886,229.852 C115.795661,229.852 116,229.661 116,229.425" id="Fill-216" fill="#CABAC4"></path>
                    <path d="M116,231.427 C116,231.191 115.7951,231 115.541631,231 L102.456852,231 C102.2049,231 102,231.191 102,231.427 C102,231.663 102.2049,231.852 102.456852,231.852 L115.541631,231.852 C115.7951,231.852 116,231.663 116,231.427" id="Fill-218" fill="#CABAC4"></path>
                    <path d="M90,236 L90,240.591964 C90,241.921573 90.7456666,243 91.6648808,243 L116.335119,243 C117.254333,243 118,241.921573 118,240.591964 L118,236 L90,236 Z" id="Fill-220" fill="#54939B"></path>
                    <path d="M104.441788,208 L102.558212,208 C102.24948,208 102,208.234787 102,208.522073 L102,218.477927 C102,218.765213 102.24948,219 102.558212,219 L104.441788,219 C104.75052,219 105,218.765213 105,218.477927 L105,208.522073 C105,208.234787 104.75052,208 104.441788,208" id="Fill-222" fill="#B3A0AE"></path>
                    <path d="M104.530909,208 L102.470649,208 C102.211948,208 102,208.302307 102,208.677804 L102,214 L105,214 L105,208.677804 C105,208.302307 104.791169,208 104.530909,208" id="Fill-224" fill="#CABAC4"></path>
                    <path d="M279.681596,312.923056 C278.623283,310.120477 277.10354,307.540063 275.156601,305.259872 L268.375064,297.320484 C267.083059,295.80586 264.816096,295.636235 263.312726,296.942203 C263.154947,297.080306 263.013541,297.227415 262.885531,297.383531 C262.45387,297.910421 261.81531,298.21815 261.138049,298.224154 C260.460789,298.23166 259.813298,297.940444 259.371218,297.42256 L259.229812,297.257437 C257.937807,295.742814 255.672333,295.571687 254.168963,296.879157 C252.833792,298.039517 252.552468,299.974452 253.415789,301.453049 C253.52296,301.637686 253.649481,301.816318 253.793864,301.982942 C253.968017,302.187093 254.015649,302.469303 253.917409,302.716986 C253.820657,302.96467 253.595896,303.135797 253.332434,303.165819 C252.641777,303.239374 251.966005,303.515579 251.398892,304.009445 C249.895522,305.313912 249.739231,307.595605 251.020817,309.114731 C251.208366,309.333894 251.26344,309.63862 251.1652,309.910321 C251.06696,310.182023 250.831779,310.378669 250.548967,310.425203 C250.017578,310.51527 249.505539,310.752446 249.075367,311.144237 C247.871183,312.238548 247.781873,314.10143 248.862514,315.326338 L253.823634,320.86995 C254.413074,321.53044 254.71226,322.402587 254.649743,323.286742 C254.588715,324.170898 254.173428,324.992007 253.500633,325.560929 C246.866455,331.185601 243.474198,338.272357 245.662271,343.155478 C248.43383,349.335562 259.091383,349.644791 269.467612,343.841487 C289.310605,332.742255 287.040666,332.478059 279.681596,312.923056" id="Fill-226" fill="#FFA898"></path>
                    <path d="M75,370 L75,359.503243 C75,358.673072 75.7019022,358 76.5684298,358 L92.5685085,358 L111.43157,358 C112.298098,358 113,358.673072 113,359.503243 L113,370 L112.826395,370 L75,370 Z" id="Fill-228" fill="#FAF9FA"></path>
                    <g id="Group-232" transform="translate(75.000000, 370.000000)">
                        <mask id="mask-32" fill="white">
                            <use xlink:href="#path-31"></use>
                        </mask>
                        <g id="Clip-231"></g>
                        <path d="M0.37065,0.1697 L38.28315,0.1697 L38.45715,0.1697 L38.87715,33.8282 C38.92665,36.7712 37.31865,39.4922 34.72215,40.8527 C26.68515,45.1562 12.48915,45.1307 4.50015,40.8272 C1.95315,39.4427 0.37065,36.7967 0.37065,33.9032 L0.37065,0.1697 Z" id="Fill-230" fill="#E1D9DF" mask="url(#mask-32)"></path>
                    </g>
                </g>
            </g>
        </g>
    </g>
</svg>