<svg height="512pt" viewBox="-11 0 512 512.00006" width="512pt" xmlns="http://www.w3.org/2000/svg"><path d="m490 267c0 135.308594-109.691406 245-245 245s-245-109.691406-245-245 109.691406-245 245-245 245 109.691406 245 245zm0 0" fill="#e02f77"/><path d="m315.230469 417.128906c-13.914063 14.144532-30.582031 25.542969-49.042969 33.53125-13.484375 5.832032-28.941406 5.8125-42.375 0-18.460938-7.988281-35.128906-19.382812-49.042969-33.53125-1.183593 21.449219-5.554687 51.621094-19.277343 78 27.726562 10.890625 57.917968 16.871094 89.507812 16.871094s61.78125-5.980469 89.511719-16.871094c-13.726563-26.378906-18.097657-56.550781-19.28125-78zm0 0" fill="#f9bd91"/><path d="m247.160156 454.972656c-7.953125.320313-15.957031-1.117187-23.347656-4.3125-18.460938-7.988281-35.128906-19.382812-49.042969-33.53125-1.183593 21.449219-5.554687 51.621094-19.28125 78 30.957031 12.15625 64.402344 17.996094 99.003907 16.675782-19.949219-12.441407-23.355469-39.894532-7.332032-56.832032zm0 0" fill="#f4ad7d"/><path d="m441.289062 193.089844c-1.40625-10.359375 2.746094-22.402344-.25-33.527344-2.730468-10.140625-12.289062-18.5625-16.433593-29.257812-3.699219-9.546876-2.125-21.164063-6.8125-29.355469-5.0625-8.839844-15.960938-13.289063-21.90625-20.675781-6.359375-7.902344-8.453125-19.433594-15.5-25.828126-7.503907-6.8125-19.28125-7.734374-27.175781-13.023437-8.480469-5.679687-13.839844-16.128906-22.277344-20.28125-9.347656-4.59375-21.011719-2.371094-29.65625-5.398437-10.378906-3.632813-18.222656-12.457032-26.511719-14.335938-17.511719-3.972656-15.042969 1.738281-29.765625 1.738281s-12.253906-5.710937-29.761719-1.742187c-8.289062 1.878906-16.132812 10.707031-26.507812 14.335937-8.648438 3.027344-20.3125.804688-29.65625 5.398438-8.441407 4.152343-13.800781 14.601562-22.28125 20.28125-7.894531 5.289062-19.671875 6.207031-27.175781 13.019531-7.046876 6.394531-9.140626 17.929688-15.5 25.828125-5.945313 7.390625-16.847657 11.839844-21.90625 20.679687-4.6875 8.191407-3.113282 19.8125-6.816407 29.355469-4.144531 10.695313-13.699219 19.121094-16.433593 29.261719-2.996094 11.121094 1.15625 23.164062-.25 33.523438-1.558594 11.46875-8.617188 22.078124-8.375 32.484374.269531 11.617188 8 21.734376 10.304687 31.851563 2.582031 11.332031.359375 23.890625 5.207031 33.089844 5.359375 10.167969 17.078125 15.074219 24.8125 22.292969 8.128906 7.585937 14.09375 18.832031 24.371094 22.757812 7.460938 2.847656 16.074219 1.15625 24.769531.132812-4.953125-13.949218-9.523437-29.539062-13.46875-46.941406 0 0-4.628906-29.285156-2.777343-56.527344.984374-14.457031 6.3125-28.292968 15.335937-39.632812 19.347656-24.320312 61.929687-68.460938 116.113281-68.460938 54.179688 0 96.761719 44.144532 116.109375 68.464844 9.023438 11.339844 14.351563 25.175782 15.332031 39.632813 1.851563 27.242187-2.773437 56.523437-2.773437 56.523437-3.945313 17.402344-8.519531 32.992188-13.472656 46.941406 8.699219 1.023438 17.3125 2.714844 24.773437-.132812 10.28125-3.925781 16.246094-15.175781 24.371094-22.761719 7.734375-7.21875 19.453125-12.125 24.8125-22.292969 4.847656-9.195312 2.625-21.753906 5.207031-33.085937 2.304688-10.117187 10.035157-20.234375 10.304688-31.851563.238281-10.402343-6.820313-21.011718-8.378907-32.480468zm0 0" fill="#f0f3fc"/><path d="m248.867188 114.234375c-3.945313-3.582031-9.917969-4.984375-13.085938-8.738281-3.507812-4.160156-3.851562-10.351563-6.472656-14.355469-3.148438-4.800781-8.609375-7.664063-10.609375-11.628906-4.21875-8.378907-1.011719-7.84375-2.867188-15.308594s-4.4375-5.492187-4.632812-14.871094c-.089844-4.4375 3.394531-9.527343 3.929687-15.246093.445313-4.765626-2.152344-10.394532-1-15.710938 1.390625-6.414062 7.289063-8.984375 8.410156-18.222656-17.296874 1.683594-19.863281 10.707031-33.808593 15.585937-8.648438 3.027344-20.3125.804688-29.65625 5.398438-8.441407 4.152343-13.800781 14.597656-22.28125 20.28125-7.894531 5.289062-19.671875 6.207031-27.175781 13.019531-7.046876 6.394531-9.140626 17.925781-15.5 25.828125-5.945313 7.390625-16.847657 11.835937-21.90625 20.679687-4.691407 8.191407-3.117188 19.8125-6.816407 29.355469-4.144531 10.695313-13.699219 19.121094-16.433593 29.257813-2.996094 11.125 1.15625 23.167968-.25 33.527344-1.558594 11.46875-8.617188 22.078124-8.375 32.480468.269531 11.621094 8 21.738282 10.304687 31.855469 2.582031 11.332031.359375 23.890625 5.207031 33.089844 5.359375 10.167969 17.078125 15.074219 24.8125 22.292969 8.128906 7.585937 14.089844 18.832031 24.371094 22.757812 7.460938 2.847656 16.074219 1.15625 24.769531.132812-4.953125-13.949218-9.523437-29.539062-13.46875-46.941406 0 0-4.628906-29.285156-2.777343-56.527344.984374-14.460937 6.3125-28.292968 15.332031-39.632812 31.707031-39.855469 77.402343-73.84375 128.183593-67.730469-3.195312-3.140625-5.078124-7.792969-8.203124-10.628906zm0 0" fill="#d7dff7"/><g fill="#bbc7f9"><path d="m245 75.773438c-4.253906 0-7.703125 3.453124-7.703125 7.707031v17.527343c0 4.253907 3.445313 7.703126 7.703125 7.703126s7.707031-3.449219 7.707031-7.703126v-17.527343c0-4.253907-3.449219-7.707031-7.707031-7.707031zm0 0"/><path d="m198.21875 89.351562c-1.59375-3.945312-6.089844-5.847656-10.03125-4.25-3.945312 1.59375-5.847656 6.085938-4.253906 10.03125l7.292968 18.023438c1.597657 3.945312 6.085938 5.847656 10.03125 4.253906 3.945313-1.597656 5.851563-6.089844 4.253907-10.035156zm0 0"/><path d="m153.261719 112.96875c-2.53125-3.417969-7.359375-4.140625-10.777344-1.605469-3.417969 2.535157-4.140625 7.359375-1.605469 10.777344l11.402344 15.398437c2.527344 3.40625 7.351562 4.144532 10.777344 1.605469 3.421875-2.535156 4.140625-7.359375 1.609375-10.777343zm0 0"/><path d="m132.691406 154.9375-14.460937-12.835938c-3.179688-2.824218-8.050781-2.535156-10.875.648438s-2.535157 8.054688.648437 10.878906l14.457032 12.832032c3.175781 2.820312 8.046874 2.542968 10.878906-.648438 2.824218-3.179688 2.535156-8.050781-.648438-10.875zm0 0"/><path d="m109.117188 186.246094-14.472657-3.949219c-4.101562-1.117187-8.339843 1.300781-9.460937 5.40625-1.121094 4.109375 1.300781 8.34375 5.40625 9.464844 14.835937 3.953125 14.699218 4.21875 16.503906 4.21875 3.386719 0 6.496094-2.253907 7.429688-5.679688 1.117187-4.105469-1.300782-8.34375-5.40625-9.460937zm0 0"/><path d="m104.316406 232.917969-14.460937 1.824219c-4.222657.535156-7.214844 4.390624-6.679688 8.609374.527344 4.1875 4.347657 7.214844 8.609375 6.679688l14.460938-1.824219c4.222656-.53125 7.214844-4.386719 6.679687-8.609375-.535156-4.222656-4.394531-7.210937-8.609375-6.679687zm0 0"/><path d="m301.8125 85.101562c-3.949219-1.597656-8.4375.304688-10.035156 4.253907l-7.289063 18.023437c-2.050781 5.0625 1.691407 10.59375 7.140625 10.59375 3.046875 0 5.933594-1.820312 7.144532-4.816406l7.292968-18.023438c1.59375-3.945312-.308594-8.4375-4.253906-10.03125zm0 0"/><path d="m347.515625 111.363281c-3.417969-2.53125-8.242187-1.8125-10.777344 1.609375l-11.402343 15.394532c-3.789063 5.117187-.0625 12.292968 6.183593 12.292968 2.359375 0 4.6875-1.082031 6.199219-3.121094l11.402344-15.394531c2.535156-3.421875 1.816406-8.246093-1.605469-10.78125zm0 0"/><path d="m382.644531 142.75c-2.824219-3.183594-7.695312-3.472656-10.875-.648438l-14.460937 12.835938c-5.296875 4.703125-1.933594 13.46875 5.121094 13.46875 4.941406 0 5.851562-3.359375 19.566406-14.777344 3.183594-2.824218 3.472656-7.695312.648437-10.878906zm0 0"/><path d="m384.941406 201.113281 14.46875-3.945312c4.105469-1.121094 6.527344-5.359375 5.40625-9.464844s-5.355468-6.523437-9.460937-5.40625l-14.46875 3.945313c-9.726563 2.65625-5.90625 17.585937 4.054687 14.871093zm0 0"/><path d="m400.144531 234.742188-14.460937-1.824219c-4.222656-.539063-8.078125 2.457031-8.609375 6.679687s2.457031 8.078125 6.679687 8.609375l14.460938 1.824219c.328125.042969.652344.0625.976562.0625 3.824219 0 7.144532-2.84375 7.632813-6.738281.535156-4.222657-2.457031-8.082031-6.679688-8.613281zm0 0"/></g><path d="m377.953125 233.207031c-.996094-14.625-6.382813-28.617187-15.511719-40.089843-19.566406-24.597657-62.640625-69.25-117.441406-69.25s-97.871094 44.652343-117.441406 69.246093c-9.125 11.472657-14.515625 25.464844-15.507813 40.089844-1.875 27.554687 2.808594 57.175781 2.808594 57.175781 9.855469 43.488282 23.582031 75.792969 37.441406 99.507813 16.394531 28.054687 41.609375 49.914062 71.511719 62.851562 13.433594 5.8125 28.886719 5.832031 42.375 0 29.902344-12.9375 55.117188-34.796875 71.511719-62.851562 13.855469-23.714844 27.585937-56.019531 37.441406-99.507813 0 0 4.683594-29.617187 2.8125-57.171875zm0 0" fill="#fcd2ae"/><path d="m247.664062 452.738281c-25.289062-12.9375-46.613281-34.796875-60.480468-62.851562-11.714844-23.714844-23.328125-56.019531-31.664063-99.507813 0 0-3.957031-29.621094-2.375-57.175781.84375-14.625 5.398438-28.617187 13.117188-40.089844 15.410156-22.898437 48.050781-63.179687 89.890625-68.625-3.660156-.402343-7.375-.621093-11.152344-.621093-54.800781 0-97.871094 44.652343-117.441406 69.246093-9.125 11.472657-14.515625 25.464844-15.507813 40.085938-1.875 27.554687 2.808594 57.179687 2.808594 57.179687 9.855469 43.488282 23.585937 75.792969 37.441406 99.507813 16.394531 28.054687 41.609375 49.914062 71.511719 62.851562 10.199219 4.410157 21.558594 5.476563 32.339844 3.1875-2.898438-.726562-5.746094-1.785156-8.488282-3.1875zm0 0" fill="#f9bd91"/><path d="m386.769531 207.097656c-1.058593-14.261718-6.804687-27.90625-16.539062-39.089844-20.867188-23.988281-66.792969-67.53125-125.230469-67.53125s-104.363281 43.542969-125.230469 67.527344c-9.730469 11.183594-15.476562 24.828125-16.539062 39.089844-1.996094 26.867188 2.996093 55.753906 2.996093 55.753906 3.136719 12.660156 6.648438 24.328125 10.417969 35.113282-.609375-2.488282-1.203125-5.015626-1.785156-7.582032 0 0-4.683594-29.621094-2.808594-57.175781.992188-14.625 6.382813-28.617187 15.507813-40.085937 19.570312-24.597657 62.636718-69.246094 117.441406-69.246094 54.800781 0 97.875 44.652344 117.441406 69.25 9.128906 11.46875 14.515625 25.464844 15.511719 40.085937 1.871094 27.554688-2.808594 57.171875-2.808594 57.171875-.582031 2.566406-1.179687 5.09375-1.789062 7.582032 3.769531-10.785157 7.28125-22.453126 10.417969-35.113282 0 0 4.992187-28.882812 2.996093-55.75zm0 0" fill="#bbc7f9"/><path d="m351.070312 238.058594c-1.402343-6.058594-6.207031-20.027344-20.960937-22.214844-14.894531-2.207031-45.285156 6.429688-57.566406 10.210938-3.269531 1.007812-5.714844 3.742187-6.355469 7.105468l-1.851562 9.691406c-.15625.824219.644531 1.503907 1.429687 1.214844 9.273437-3.382812 52-18.519531 65.621094-15.273437 10.382812 2.476562 15.976562 7.144531 18.5 9.890625.480469.519531 1.34375.066406 1.183593-.625zm0 0" fill="#633"/><path d="m138.929688 238.058594c1.402343-6.058594 6.207031-20.027344 20.960937-22.214844 14.894531-2.207031 45.285156 6.429688 57.566406 10.210938 3.269531 1.007812 5.714844 3.742187 6.355469 7.105468l1.847656 9.691406c.160156.824219-.640625 1.503907-1.425781 1.214844-9.273437-3.382812-52.003906-18.519531-65.621094-15.273437-10.382812 2.476562-15.976562 7.144531-18.503906 9.890625-.476563.519531-1.339844.066406-1.179687-.625zm0 0" fill="#633"/><path d="m220.660156 331.984375 5.53125-1.164063c10.277344 10.152344 27.355469 10.132813 37.617188 0l5.53125 1.164063c3.972656.832031 7.886718-1.710937 8.726562-5.691406.839844-3.984375-1.710937-7.890625-5.691406-8.726563l-9.925781-2.089844c-3.230469-.679687-6.382813.617188-7.910157 3.542969-4.011718 6.207031-15.058593 6.214844-19.078124 0-1.527344-2.925781-4.679688-4.222656-7.910157-3.542969l-9.925781 2.089844c-3.980469.835938-6.53125 4.746094-5.691406 8.726563.835937 3.980469 4.746094 6.523437 8.726562 5.691406zm0 0" fill="#f9bd91"/><path d="m273.707031 370.160156c-1.140625-3.507812-4.90625-5.429687-8.414062-4.289062l-20.292969 6.597656-20.289062-6.597656c-3.507813-1.136719-7.277344.78125-8.414063 4.289062-1.140625 3.507813.777344 7.273438 4.285156 8.414063l22.355469 7.265625c1.332031.433594 2.769531.441406 4.125 0l22.355469-7.265625c3.507812-1.140625 5.425781-4.90625 4.289062-8.414063zm0 0" fill="#f9bd91"/><path d="m345.976562 266.132812c-7.78125-8.777343-15.289062-13.84375-22.246093-16.429687 1.367187 3.296875 2.128906 7.117187 2.089843 11.183594-.070312 6.898437-2.449218 13.023437-6.109374 17.039062 5.792968-1.300781 10.324218-3.1875 13.117187-4.636719 5.65625-2.933593 9.921875-4.097656 12.457031-4.558593 1.054688-.195313 1.464844-1.726563.691406-2.597657zm0 0" fill="#edeef2"/><path d="m293.300781 260.433594c.027344-2.96875.492188-5.789063 1.292969-8.367188-3.46875 1.910156-6.273438 4.113282-8.257812 5.972656-4.523438 4.234376-12.375 9.578126-16.671876 12.398438-.8125.535156-.496093 1.988281.433594 2l.421875.003906c3.960938.054688 7.890625.835938 11.640625 2.339844 6.488282 2.609375 12.703125 3.949219 18.464844 4.445312-4.476562-4.007812-7.40625-10.9375-7.324219-18.792968zm0 0" fill="#edeef2"/><path d="m281.574219 262.03125c-4.136719 3.207031-8.894531 6.425781-11.910157 8.40625-.8125.535156-.496093 1.984375.433594 2l.421875.003906c3.960938.054688 7.890625.832032 11.640625 2.339844.632813.253906 1.261719.488281 1.886719.71875-1.710937-2.929688-2.722656-6.652344-2.683594-10.703125.011719-.945313.089844-1.863281.210938-2.765625zm0 0" fill="#f9bd91"/><path d="m293.304688 252.804688c-.972657 2.539062-1.53125 5.347656-1.5625 8.308593-.074219 7.667969 3.394531 14.410157 8.613281 18.085938 7.574219.6875 14.363281-.097657 19.933593-1.402344 4.117188-3.757813 6.796876-9.597656 6.863282-16.199219.042968-4.328125-1.042969-8.359375-2.933594-11.710937-12.648438-4.890625-23.511719-1.515625-30.914062 2.917969zm0 0" fill="#633"/><path d="m310.8125 256.140625c0-3.238281-.96875-6.195313-2.566406-8.472656-5.828125.613281-10.898438 2.714843-14.941406 5.136719-.976563 2.539062-1.53125 5.347656-1.5625 8.308593-.011719 1.144531.066406 2.261719.207031 3.359375 1.957031 2.878906 4.902343 4.710938 8.203125 4.710938 5.886718 0 10.660156-5.839844 10.660156-13.042969zm0 0" fill="#542727"/><path d="m320.914062 256.132812c0 1.628907-1.320312 2.953126-2.953124 2.953126-1.628907 0-2.949219-1.324219-2.949219-2.953126 0-1.628906 1.320312-2.949218 2.949219-2.949218 1.632812 0 2.953124 1.320312 2.953124 2.949218zm0 0" fill="#845555"/><path d="m144.582031 266.132812c7.78125-8.777343 15.289063-13.84375 22.25-16.429687-1.367187 3.296875-2.132812 7.117187-2.089843 11.183594.070312 6.898437 2.445312 13.023437 6.109374 17.039062-5.796874-1.300781-10.324218-3.1875-13.117187-4.636719-5.65625-2.933593-9.921875-4.097656-12.457031-4.558593-1.054688-.195313-1.464844-1.726563-.695313-2.597657zm0 0" fill="#edeef2"/><path d="m197.261719 260.433594c-.027344-2.96875-.492188-5.789063-1.292969-8.367188 3.46875 1.910156 6.269531 4.113282 8.257812 5.972656 4.523438 4.234376 12.375 9.578126 16.671876 12.398438.8125.535156.496093 1.988281-.433594 2l-.421875.003906c-3.960938.054688-7.894531.835938-11.640625 2.339844-6.488282 2.609375-12.707032 3.949219-18.464844 4.445312 4.472656-4.007812 7.40625-10.9375 7.324219-18.792968zm0 0" fill="#edeef2"/><path d="m208.988281 262.03125c4.136719 3.207031 8.894531 6.425781 11.90625 8.40625.816407.535156.5 1.984375-.433593 2l-.417969.003906c-3.960938.054688-7.894531.832032-11.640625 2.339844-.632813.253906-1.261719.488281-1.890625.71875 1.714843-2.929688 2.722656-6.652344 2.683593-10.703125-.007812-.945313-.089843-1.863281-.207031-2.765625zm0 0" fill="#f9bd91"/><path d="m197.257812 252.804688c.972657 2.539062 1.53125 5.347656 1.5625 8.308593.074219 7.667969-3.394531 14.410157-8.613281 18.085938-7.574219.6875-14.363281-.097657-19.933593-1.402344-4.121094-3.757813-6.796876-9.597656-6.863282-16.199219-.042968-4.328125 1.042969-8.359375 2.933594-11.710937 12.648438-4.890625 23.511719-1.515625 30.914062 2.917969zm0 0" fill="#633"/><path d="m179.75 256.140625c0-3.238281.96875-6.195313 2.566406-8.472656 5.828125.613281 10.898438 2.714843 14.941406 5.136719.972657 2.539062 1.53125 5.347656 1.5625 8.308593.007813 1.144531-.066406 2.261719-.207031 3.359375-1.957031 2.878906-4.902343 4.710938-8.203125 4.710938-5.886718 0-10.660156-5.839844-10.660156-13.042969zm0 0" fill="#542727"/><path d="m175.550781 256.132812c0 1.628907-1.320312 2.953126-2.953125 2.953126-1.628906 0-2.949218-1.324219-2.949218-2.953126 0-1.628906 1.320312-2.949218 2.949218-2.949218 1.632813 0 2.953125 1.320312 2.953125 2.949218zm0 0" fill="#845555"/><path d="m297.585938 390.53125-.03125-.316406c-.363282-4.125 2.683593-7.765625 6.8125-8.128906 4.109374-.355469 7.75 2.675781 8.125 6.789062.429687 4.074219-2.5 7.75-6.582032 8.230469-4.089844.484375-7.839844-2.4375-8.324218-6.574219zm9.617187-28.335938c-3.667969-1.921874-5.078125-6.457031-3.15625-10.125l.070313-.132812c1.949218-3.652344 6.492187-5.039062 10.148437-3.085938 3.65625 1.949219 5.039063 6.492188 3.089844 10.144532l-.023438.042968c-1.929687 3.679688-6.46875 5.074219-10.128906 3.15625zm26.167969-22.207031c-3.667969-1.925781-5.078125-6.457031-3.15625-10.125l.070312-.136719c1.949219-3.652343 6.488282-5.039062 10.148438-3.085937 3.65625 1.949219 5.035156 6.492187 3.085937 10.144531l-.019531.042969c-1.933594 3.679687-6.472656 5.078125-10.128906 3.160156zm0 0" fill="#5e73dd"/><path d="m184.089844 397.105469c-4.085938-.480469-7.019532-4.160157-6.582032-8.242188.394532-4.097656 4.042969-7.128906 8.132813-6.765625 4.121094.367188 7.167969 3.996094 6.804687 8.121094l-.03125.316406c-.488281 4.136719-4.238281 7.054688-8.324218 6.570313zm-11.421875-38.066407c-1.949219-3.65625-.578125-8.21875 3.078125-10.167968 3.648437-1.949219 8.183594-.589844 10.132812 3.066406l.070313.132812c1.925781 3.667969.511719 8.203126-3.15625 10.125-3.664063 1.921876-8.199219.515626-10.125-3.15625zm-26.042969-22.183593c-1.949219-3.65625-.578125-8.21875 3.078125-10.167969 3.652344-1.949219 8.1875-.589844 10.136719 3.066406l.070312.132813c1.921875 3.667969.511719 8.203125-3.15625 10.125-3.664062 1.921875-8.199218.515625-10.128906-3.15625zm0 0" fill="#5e73dd"/><path d="m233.222656 101.070312c-52.804687 5.265626-94.011718 44.582032-113.453125 66.933594-9.730469 11.183594-15.476562 24.828125-16.539062 39.089844-1.996094 26.867188 2.996093 55.753906 2.996093 55.753906 3.136719 12.660156 6.648438 24.328125 10.417969 35.113282-.609375-2.492188-1.203125-5.015626-1.785156-7.582032 0 0-4.683594-29.621094-2.808594-57.175781.992188-14.625 6.382813-28.617187 15.507813-40.089844 18.605468-23.386719 58.464844-64.902343 109.453125-68.925781-9.359375-3.910156-11.511719-16.320312-3.789063-23.117188zm0 0" fill="#8d9deb"/><path d="m182.296875 225.972656c0-3.699218 2.609375-6.789062 6.089844-7.535156-10.589844-2.207031-21.335938-3.652344-28.496094-2.59375-14.753906 2.1875-19.558594 16.152344-20.960937 22.214844-.160157.691406.703124 1.148437 1.183593.625 2.523438-2.746094 8.117188-7.417969 18.5-9.890625 5.457031-1.300781 15.585938.351562 26.363281 3.015625-1.636718-1.414063-2.679687-3.5-2.679687-5.835938zm0 0" fill="#542727"/><path d="m305.128906 217.738281c-12.59375 2.398438-25.554687 6.152344-32.585937 8.316407-3.269531 1.007812-5.714844 3.742187-6.355469 7.105468l-1.851562 9.691406c-.15625.824219.644531 1.503907 1.429687 1.214844 5.859375-2.136718 25.085937-8.96875 41.878906-12.890625-5.855469-1.890625-7.304687-9.539062-2.515625-13.4375zm0 0" fill="#542727"/></svg>